{"glyphs":{"0":{"ha":772,"x_min":0,"x_max":0,"o":"m 385 992 b 29 490 151 992 29 818 b 385 -19 29 154 153 -19 b 743 490 618 -19 743 156 b 385 992 743 819 617 992 z m 226 496 b 383 829 226 594 226 829 b 546 496 533 829 546 632 b 385 143 546 365 542 143 b 226 496 228 143 226 375 z "},"1":{"ha":772,"x_min":0,"x_max":0,"o":"m 388 972 b 117 779 368 846 275 779 l 103 779 l 103 631 l 347 631 l 347 0 l 544 0 l 544 972 z "},"2":{"ha":772,"x_min":0,"x_max":0,"o":"m 404 992 b 51 617 188 992 51 842 l 51 599 l 240 599 b 394 822 242 736 297 822 b 540 672 485 822 540 760 b 404 481 540 588 481 532 b 158 300 268 389 211 350 b 29 0 74 219 29 129 l 743 0 l 743 169 l 283 169 b 506 354 321 222 369 268 b 693 521 608 419 657 464 b 738 688 722 568 738 622 b 404 992 738 876 583 992 z "},"3":{"ha":772,"x_min":0,"x_max":0,"o":"m 385 992 b 49 656 188 992 56 860 l 236 656 b 386 829 236 786 313 829 b 524 700 460 829 524 782 b 353 579 524 624 464 579 l 317 579 l 317 440 l 347 440 b 542 296 469 440 542 408 b 383 143 542 206 475 143 b 213 335 282 143 218 213 l 25 335 l 25 324 b 386 -19 25 114 165 -19 b 747 300 578 -19 747 99 b 575 521 747 408 683 497 l 575 524 b 711 722 663 549 711 626 b 385 992 711 896 540 992 z "},"4":{"ha":772,"x_min":0,"x_max":0,"o":"m 444 972 l 22 406 l 22 225 l 433 225 l 433 0 l 621 0 l 621 225 l 750 225 l 750 388 l 621 388 l 621 972 z m 433 725 l 433 388 l 178 388 l 429 725 z "},"5":{"ha":772,"x_min":0,"x_max":0,"o":"m 151 972 l 56 435 l 233 435 b 381 513 271 488 311 513 b 550 331 492 513 550 428 b 382 143 550 229 482 143 b 222 289 296 143 232 200 l 25 289 b 390 -19 31 93 183 -19 b 747 331 592 -19 747 138 b 447 661 747 511 640 661 b 257 586 363 661 306 635 l 254 589 l 293 810 l 694 810 l 694 972 z "},"6":{"ha":772,"x_min":0,"x_max":0,"o":"m 411 992 b 29 483 128 992 29 711 b 403 -19 29 192 138 -19 b 743 336 604 -19 743 136 b 443 653 743 542 593 653 b 225 544 347 653 279 621 l 222 547 b 408 843 231 703 288 843 b 539 722 471 843 524 796 l 726 722 b 411 992 704 892 582 992 z m 240 324 b 396 504 240 431 301 504 b 546 321 500 504 546 411 b 397 143 546 229 489 143 b 240 324 301 143 240 228 z "},"7":{"ha":772,"x_min":0,"x_max":0,"o":"m 54 972 l 54 789 l 515 789 b 189 0 331 567 211 288 l 400 0 b 718 803 406 269 515 622 l 718 972 z "},"8":{"ha":772,"x_min":0,"x_max":0,"o":"m 388 992 b 60 726 228 992 60 900 b 203 526 60 628 111 551 l 203 524 b 19 285 86 496 19 407 b 389 -19 19 74 204 -19 b 753 286 575 -19 753 83 b 571 524 753 406 692 494 l 571 526 b 713 729 664 558 713 635 b 388 992 713 831 625 992 z m 239 708 b 386 843 239 797 311 843 b 533 708 508 843 533 761 b 388 581 533 626 471 581 b 239 708 308 581 239 625 z m 217 294 b 388 449 217 392 290 449 b 556 293 486 449 556 382 b 389 129 556 197 485 129 b 217 294 292 129 217 196 z "},"9":{"ha":772,"x_min":0,"x_max":0,"o":"m 371 992 b 29 636 160 992 29 829 b 328 319 29 413 200 319 b 547 428 428 319 496 354 l 550 425 b 364 129 536 232 469 129 b 233 250 300 129 247 179 l 46 250 b 361 -19 68 79 192 -19 b 743 490 638 -19 743 250 b 371 992 743 788 629 992 z m 226 651 b 375 829 226 742 282 829 b 532 649 471 829 532 744 b 375 468 532 550 479 468 b 226 651 274 468 226 560 z "},"\u0000":{"ha":0,"x_min":0,"x_max":0,"o":""},"\r":{"ha":386,"x_min":0,"x_max":0,"o":""}," ":{"ha":386,"x_min":0,"x_max":0,"o":""},"!":{"ha":386,"x_min":0,"x_max":0,"o":"m 90 992 l 90 725 l 143 297 l 242 297 l 296 725 l 296 992 z m 85 214 l 85 0 l 303 0 l 303 214 z "},"\"":{"ha":643,"x_min":0,"x_max":0,"o":"m 118 992 l 118 546 l 267 546 l 267 992 z m 376 992 l 376 546 l 525 546 l 525 992 z "},"#":{"ha":772,"x_min":0,"x_max":0,"o":"m 258 972 l 219 697 l 88 697 l 88 572 l 203 572 l 178 400 l 46 400 l 46 275 l 161 275 l 122 0 l 257 0 l 258 4 l 296 275 l 429 275 l 392 0 l 526 0 l 564 275 l 685 275 l 685 400 l 582 400 l 606 572 l 726 572 l 726 697 l 624 697 l 661 972 l 526 972 l 489 697 l 354 697 l 393 972 z m 471 572 l 447 400 l 313 400 l 338 572 z "},"$":{"ha":772,"x_min":0,"x_max":0,"o":"m 344 1015 b 22 718 156 1001 22 892 b 250 456 22 578 101 501 b 344 429 286 444 331 433 l 344 139 b 196 318 254 157 196 222 l 196 322 l -1 322 b 344 -24 19 107 135 -8 l 344 -142 l 426 -142 l 426 -24 b 774 275 681 -8 774 163 b 426 607 774 456 682 550 l 426 853 b 542 719 489 853 540 793 l 739 719 b 426 1015 729 893 615 994 l 426 1122 l 344 1122 z m 219 738 b 344 853 219 808 275 853 l 344 626 b 219 738 258 647 219 675 z m 426 406 b 576 275 539 376 576 344 b 426 139 576 199 513 149 z "},"%":{"ha":1389,"x_min":0,"x_max":0,"o":"m 928 1003 l 353 -31 l 474 -31 l 1046 1003 z m 340 992 b 104 717 182 992 104 874 b 333 450 104 542 181 450 b 568 713 482 450 568 543 b 340 992 568 871 507 992 z m 246 713 b 340 888 246 790 256 888 b 426 713 422 888 426 768 b 335 554 426 628 410 554 b 246 713 247 554 246 650 z m 1057 522 b 821 254 896 522 821 406 b 1050 -19 821 88 892 -19 b 1285 250 1201 -19 1285 85 b 1057 522 1285 426 1208 522 z m 963 253 b 1056 418 963 308 965 418 b 1143 253 1117 418 1143 361 b 1051 85 1143 154 1122 85 b 963 253 964 85 963 188 z "},"&":{"ha":951,"x_min":0,"x_max":0,"o":"m 432 1003 b 172 776 292 1003 172 910 b 267 565 172 711 193 651 b 44 278 119 496 44 394 b 365 -19 44 96 181 -19 b 644 99 478 -19 565 21 l 725 0 l 967 0 l 765 235 b 861 479 814 297 850 378 l 690 479 b 654 361 685 435 672 393 l 526 518 b 703 765 643 581 703 663 b 432 1003 703 922 578 1003 z m 351 783 b 439 871 351 836 393 871 b 531 776 490 871 531 828 b 429 635 531 715 500 678 b 351 783 365 707 351 742 z m 232 274 b 371 438 232 343 282 400 l 540 231 b 374 143 483 167 432 143 b 232 274 300 143 232 201 z "},"'":{"ha":386,"x_min":0,"x_max":0,"o":"m 119 992 l 119 546 l 268 546 l 268 992 z "},"(":{"ha":411,"x_min":0,"x_max":0,"o":"m 256 1015 b 72 372 131 831 72 578 b 256 -253 72 164 136 -57 l 419 -253 b 269 386 317 -51 269 158 b 421 1015 269 611 322 832 z "},")":{"ha":411,"x_min":0,"x_max":0,"o":"m -8 1015 b 142 375 92 819 142 606 b -10 -253 142 153 92 -60 l 156 -253 b 339 389 285 -65 339 194 b 156 1015 339 597 275 819 z "},"*":{"ha":565,"x_min":0,"x_max":0,"o":"m 225 992 l 225 818 l 68 879 l 31 772 l 192 718 l 89 582 l 182 514 l 279 657 l 382 514 l 474 582 l 371 718 l 535 772 l 497 879 l 336 818 l 336 992 z "},"+":{"ha":833,"x_min":0,"x_max":0,"o":"m 343 701 l 343 425 l 67 425 l 67 276 l 343 276 l 343 0 l 492 0 l 492 276 l 768 276 l 768 425 l 492 425 l 492 701 z "},",":{"ha":386,"x_min":0,"x_max":0,"o":"m 85 214 l 85 0 l 185 0 l 185 -10 b 86 -131 185 -62 146 -118 l 86 -231 b 303 -3 225 -208 303 -110 l 303 214 z "},"-":{"ha":565,"x_min":0,"x_max":0,"o":"m 74 464 l 74 294 l 492 294 l 492 464 z "},".":{"ha":386,"x_min":0,"x_max":0,"o":"m 83 214 l 83 0 l 301 0 l 301 214 z "},"/":{"ha":515,"x_min":0,"x_max":0,"o":"m 372 1015 l -15 -24 l 143 -24 l 531 1015 z "},":":{"ha":386,"x_min":0,"x_max":0,"o":"m 85 706 l 85 492 l 303 492 l 303 706 z m 85 214 l 85 0 l 303 0 l 303 214 z "},";":{"ha":386,"x_min":0,"x_max":0,"o":"m 85 706 l 85 492 l 303 492 l 303 706 z m 85 214 l 85 0 l 185 0 l 185 -10 b 86 -131 185 -67 142 -119 l 86 -231 b 303 -1 213 -211 303 -121 l 303 214 z "},"<":{"ha":833,"x_min":0,"x_max":0,"o":"m 769 714 l 64 433 l 64 269 l 769 -11 l 769 149 l 260 351 l 769 554 z "},"=":{"ha":833,"x_min":0,"x_max":0,"o":"m 67 574 l 67 425 l 768 425 l 768 574 z m 67 276 l 67 128 l 768 128 l 768 276 z "},">":{"ha":833,"x_min":0,"x_max":0,"o":"m 64 554 l 574 351 l 64 149 l 64 -11 l 769 269 l 769 433 l 64 714 z "},"?":{"ha":772,"x_min":0,"x_max":0,"o":"m 382 1015 b 44 672 183 1015 49 876 l 249 672 b 392 853 249 782 300 853 b 510 728 468 853 510 810 b 411 581 510 658 476 632 b 288 338 329 517 288 447 l 288 297 l 475 297 l 475 338 b 561 476 475 396 511 440 l 607 510 b 728 746 660 549 728 606 b 382 1015 728 857 639 1015 z m 268 214 l 268 0 l 486 0 l 486 214 z "},"@":{"ha":1111,"x_min":0,"x_max":0,"o":"m 578 1015 b 50 496 289 1015 50 789 b 585 -24 50 200 289 -24 b 1008 201 753 -24 908 51 l 892 201 b 593 88 819 129 707 88 b 183 493 349 88 183 256 b 576 904 183 729 339 904 b 953 563 799 904 953 774 b 789 307 953 413 868 307 b 765 339 774 307 765 319 b 779 410 765 357 771 378 l 864 757 l 750 757 l 728 682 b 565 779 700 747 633 779 b 263 426 378 779 263 594 b 481 188 263 294 364 188 b 631 268 543 188 597 214 l 633 268 b 733 189 638 219 679 189 b 1061 592 826 189 1061 310 b 578 1015 1061 846 831 1015 z m 404 443 b 575 647 404 543 481 647 b 683 529 640 647 683 593 b 513 319 683 431 611 319 b 404 443 444 319 404 372 z "},"A":{"ha":951,"x_min":0,"x_max":0,"o":"m 367 992 l -10 0 l 211 0 l 289 221 l 660 221 l 735 0 l 961 0 l 590 992 z m 478 747 l 603 383 l 346 383 l 475 747 z "},"B":{"ha":978,"x_min":0,"x_max":0,"o":"m 96 992 l 96 0 l 576 0 b 926 288 761 0 926 90 b 744 539 926 411 867 504 b 879 747 829 581 879 644 b 564 992 879 918 767 992 z m 314 590 l 314 822 l 521 822 b 668 708 615 822 668 788 b 536 590 668 628 615 590 z m 314 169 l 314 442 l 553 442 b 708 300 651 442 708 396 b 549 169 708 211 650 169 z "},"C":{"ha":1029,"x_min":0,"x_max":0,"o":"m 540 1015 b 53 492 233 1015 53 785 b 540 -24 53 201 238 -24 b 976 382 783 -24 954 132 l 765 382 b 540 160 747 240 665 160 b 271 492 358 160 271 306 b 540 832 271 692 363 832 b 757 658 649 832 742 756 l 968 658 b 540 1015 943 882 763 1015 z "},"D":{"ha":1029,"x_min":0,"x_max":0,"o":"m 96 992 l 96 0 l 526 0 b 974 501 804 0 974 189 b 521 992 974 814 796 992 z m 314 183 l 314 808 l 469 808 b 756 482 651 808 756 718 b 507 183 756 268 643 183 z "},"E":{"ha":900,"x_min":0,"x_max":0,"o":"m 96 992 l 96 0 l 849 0 l 849 183 l 314 183 l 314 426 l 794 426 l 794 596 l 314 596 l 314 808 l 838 808 l 838 992 z "},"F":{"ha":824,"x_min":0,"x_max":0,"o":"m 96 992 l 96 0 l 314 0 l 314 410 l 729 410 l 729 579 l 314 579 l 314 808 l 793 808 l 793 992 z "},"G":{"ha":1054,"x_min":0,"x_max":0,"o":"m 540 1015 b 53 492 233 1015 53 786 b 540 -24 53 203 238 -24 b 813 113 646 -24 740 19 l 835 0 l 974 0 l 974 536 l 557 536 l 557 374 l 776 374 b 540 160 763 231 679 160 b 271 492 350 160 271 318 b 540 832 271 686 360 832 b 750 665 646 832 724 776 l 958 665 b 540 1015 939 882 753 1015 z "},"H":{"ha":1029,"x_min":0,"x_max":0,"o":"m 96 992 l 96 0 l 314 0 l 314 428 l 715 428 l 715 0 l 933 0 l 933 992 l 715 992 l 715 611 l 314 611 l 314 992 z "},"I":{"ha":410,"x_min":0,"x_max":0,"o":"m 96 992 l 96 0 l 314 0 l 314 992 z "},"J":{"ha":772,"x_min":0,"x_max":0,"o":"m 458 992 l 458 314 b 343 160 458 239 451 160 b 217 321 260 160 217 204 l 217 369 l 19 369 l 19 281 b 349 -24 19 96 147 -24 b 676 311 567 -24 676 94 l 676 992 z "},"K":{"ha":1003,"x_min":0,"x_max":0,"o":"m 96 992 l 96 0 l 314 0 l 314 319 l 439 446 l 738 0 l 1011 0 l 586 600 l 974 992 l 701 992 l 314 581 l 314 992 z "},"L":{"ha":824,"x_min":0,"x_max":0,"o":"m 96 992 l 96 0 l 797 0 l 797 183 l 314 183 l 314 992 z "},"M":{"ha":1260,"x_min":0,"x_max":0,"o":"m 96 992 l 96 0 l 300 0 l 300 696 l 303 696 l 546 0 l 714 0 l 957 703 l 960 703 l 960 0 l 1164 0 l 1164 992 l 857 992 l 638 310 l 635 310 l 403 992 z "},"N":{"ha":1029,"x_min":0,"x_max":0,"o":"m 96 992 l 96 0 l 300 0 l 300 664 l 303 664 l 715 0 l 933 0 l 933 992 l 729 992 l 729 326 l 726 326 l 313 992 z "},"O":{"ha":1081,"x_min":0,"x_max":0,"o":"m 540 1015 b 53 492 236 1015 53 786 b 540 -24 53 203 238 -24 b 1028 492 843 -24 1028 203 b 540 1015 1028 792 840 1015 z m 271 492 b 539 832 271 683 357 832 b 810 492 725 832 810 682 b 540 160 810 311 725 160 b 271 492 358 160 271 307 z "},"P":{"ha":926,"x_min":0,"x_max":0,"o":"m 96 992 l 96 0 l 314 0 l 314 356 l 546 356 b 886 674 774 356 886 494 b 544 992 886 850 776 992 z m 314 525 l 314 822 l 489 822 b 675 674 617 822 675 775 b 488 525 675 568 613 525 z "},"Q":{"ha":1081,"x_min":0,"x_max":0,"o":"m 540 1015 b 53 492 233 1015 53 786 b 540 -24 53 207 235 -24 b 781 35 636 -24 715 -3 l 921 -93 l 1022 14 l 899 126 b 1028 492 985 225 1028 350 b 540 1015 1028 796 838 1015 z m 271 492 b 539 832 271 688 361 832 b 810 492 718 832 810 692 b 749 264 810 400 790 319 l 636 367 l 535 258 l 628 174 b 542 160 613 161 588 160 b 271 492 333 160 271 342 z "},"R":{"ha":1003,"x_min":0,"x_max":0,"o":"m 96 992 l 96 0 l 314 0 l 314 388 l 533 388 b 704 172 671 388 693 311 b 732 0 710 101 715 42 l 950 0 b 911 182 925 35 915 88 b 764 467 907 275 903 428 l 764 469 b 921 718 868 511 921 593 b 631 992 921 871 806 992 z m 314 543 l 314 822 l 553 822 b 703 685 649 822 703 783 b 554 543 703 581 646 543 z "},"S":{"ha":901,"x_min":0,"x_max":0,"o":"m 438 1015 b 67 717 256 1015 67 917 b 285 456 67 590 135 506 b 486 401 349 435 413 421 b 657 269 608 371 657 332 b 463 146 657 179 563 146 b 244 329 360 146 244 189 l 33 329 l 33 322 b 456 -24 33 76 246 -24 b 868 294 719 -24 868 107 b 542 592 868 504 689 554 b 278 733 319 647 278 661 b 429 846 278 811 349 846 b 624 696 558 846 617 796 l 835 696 b 438 1015 835 921 650 1015 z "},"T":{"ha":849,"x_min":0,"x_max":0,"o":"m 18 992 l 18 808 l 315 808 l 315 0 l 533 0 l 533 808 l 831 808 l 831 992 z "},"U":{"ha":1029,"x_min":0,"x_max":0,"o":"m 92 992 l 92 371 b 514 -24 92 124 226 -24 b 938 371 794 -24 938 124 l 938 992 l 719 992 l 719 371 b 514 160 719 225 667 160 b 310 371 374 160 310 225 l 310 992 z "},"V":{"ha":875,"x_min":0,"x_max":0,"o":"m -11 992 l 311 0 l 557 0 l 886 992 l 661 992 l 438 294 l 435 294 l 214 992 z "},"W":{"ha":1311,"x_min":0,"x_max":0,"o":"m 4 992 l 267 0 l 488 0 l 653 675 l 656 675 l 824 0 l 1040 0 l 1307 992 l 1093 992 l 931 308 l 928 308 l 758 992 l 554 992 l 382 317 l 379 317 l 222 992 z "},"X":{"ha":926,"x_min":0,"x_max":0,"o":"m 19 992 l 339 519 l -8 0 l 238 0 l 458 343 l 675 0 l 935 0 l 589 518 l 907 992 l 668 992 l 467 675 l 272 992 z "},"Y":{"ha":926,"x_min":0,"x_max":0,"o":"m -12 992 l 353 386 l 353 0 l 571 0 l 571 381 l 939 992 l 696 992 l 465 600 l 233 992 z "},"Z":{"ha":900,"x_min":0,"x_max":0,"o":"m 74 992 l 74 808 l 564 808 l 32 172 l 32 0 l 868 0 l 868 183 l 322 183 l 854 819 l 854 992 z "},"[":{"ha":463,"x_min":0,"x_max":0,"o":"m 94 1015 l 94 -253 l 461 -253 l 461 -97 l 292 -97 l 292 860 l 461 860 l 461 1015 z "},"\\":{"ha":515,"x_min":0,"x_max":0,"o":"m -15 1015 l 372 -24 l 531 -24 l 143 1015 z "},"]":{"ha":463,"x_min":0,"x_max":0,"o":"m 1 1015 l 1 860 l 171 860 l 171 -97 l 1 -97 l 1 -253 l 368 -253 l 368 1015 z "},"^":{"ha":833,"x_min":0,"x_max":0,"o":"m 324 972 l 85 438 l 247 438 l 417 819 l 586 438 l 749 438 l 510 972 z "},"_":{"ha":694,"x_min":0,"x_max":0,"o":"m 0 -104 l 0 -174 l 694 -174 l 694 -104 z "},"`":{"ha":360,"x_min":0,"x_max":0,"o":"m -67 1015 l 147 818 l 285 818 l 151 1015 z "},"a":{"ha":797,"x_min":0,"x_max":0,"o":"m 406 738 b 67 497 204 738 75 654 l 264 497 b 396 606 271 572 314 606 b 522 510 463 606 522 592 b 339 421 522 446 467 435 b 107 349 219 408 153 388 b 44 196 67 314 44 265 b 289 -19 44 57 142 -19 b 531 69 390 -19 475 11 b 544 0 532 46 538 22 l 744 0 b 719 153 726 29 719 96 l 719 533 b 406 738 719 667 615 738 z m 242 204 b 403 317 242 282 301 304 b 522 351 469 325 504 335 l 522 275 b 363 113 522 169 468 113 b 242 204 276 113 242 147 z "},"b":{"ha":849,"x_min":0,"x_max":0,"o":"m 75 992 l 75 0 l 263 0 l 263 92 l 265 92 b 500 -19 304 19 385 -19 b 799 360 656 -19 799 108 b 501 738 799 621 646 738 b 275 631 400 738 318 696 l 272 631 l 272 992 z m 265 358 b 432 589 265 490 324 589 b 601 358 547 589 601 486 b 433 129 601 231 544 129 b 265 358 325 129 265 226 z "},"c":{"ha":797,"x_min":0,"x_max":0,"o":"m 419 738 b 53 349 192 738 53 578 b 415 -19 53 140 192 -19 b 761 275 607 -19 735 86 l 571 275 b 414 129 557 179 501 129 b 250 356 299 129 250 238 b 418 589 250 472 299 589 b 564 465 503 589 551 547 l 757 465 b 419 738 747 638 603 738 z "},"d":{"ha":849,"x_min":0,"x_max":0,"o":"m 578 992 l 578 631 l 575 631 b 363 738 532 700 449 738 b 44 365 156 738 44 564 b 367 -19 44 161 153 -19 b 585 92 465 -19 542 18 l 588 92 l 588 0 l 775 0 l 775 992 z m 242 360 b 414 589 242 499 301 589 b 585 361 535 589 585 492 b 415 129 585 217 528 129 b 242 360 294 129 242 246 z "},"e":{"ha":797,"x_min":0,"x_max":0,"o":"m 407 738 b 40 358 190 738 40 575 b 407 -19 40 138 179 -19 b 743 222 579 -19 690 60 l 569 222 b 413 129 554 172 488 129 b 238 311 300 129 243 188 l 756 311 b 757 347 756 311 757 336 b 407 738 757 560 633 738 z m 238 436 b 400 589 246 531 304 589 b 558 436 492 589 539 544 z "},"f":{"ha":463,"x_min":0,"x_max":0,"o":"m 315 0 l 315 586 l 451 586 l 451 718 l 315 718 l 315 760 b 392 843 315 821 335 843 b 463 839 413 843 438 842 l 463 986 b 358 992 404 990 372 992 b 118 771 217 992 118 921 l 118 718 l 0 718 l 0 586 l 118 586 l 118 0 z "},"g":{"ha":849,"x_min":0,"x_max":0,"o":"m 361 738 b 53 382 160 738 53 565 b 360 21 53 172 153 21 b 575 132 457 21 536 63 l 578 132 l 578 33 b 419 -140 578 -76 521 -140 b 272 -42 343 -140 289 -111 l 76 -42 b 394 -272 85 -187 228 -272 b 765 44 657 -272 765 -142 l 765 718 l 578 718 l 578 622 l 575 622 b 361 738 531 699 464 738 z m 250 385 b 408 589 250 503 307 589 b 578 369 547 589 578 469 b 410 169 578 257 517 169 b 250 385 296 169 250 268 z "},"h":{"ha":824,"x_min":0,"x_max":0,"o":"m 75 992 l 75 0 l 272 0 l 272 376 b 425 582 272 503 304 582 b 551 408 517 582 551 525 l 551 0 l 749 0 l 749 449 b 488 738 749 647 669 738 b 276 618 403 738 321 692 l 272 618 l 272 992 z "},"i":{"ha":358,"x_min":0,"x_max":0,"o":"m 81 992 l 81 829 l 278 829 l 278 992 z m 81 718 l 81 0 l 278 0 l 278 718 z "},"j":{"ha":386,"x_min":0,"x_max":0,"o":"m 93 992 l 93 829 l 290 829 l 290 992 z m 93 718 l 93 -25 b 18 -90 93 -64 78 -90 b -26 -85 1 -90 -15 -89 l -26 -247 b 39 -253 -4 -251 17 -253 b 290 -40 225 -253 290 -192 l 290 718 z "},"k":{"ha":797,"x_min":0,"x_max":0,"o":"m 93 992 l 93 0 l 290 0 l 290 247 l 367 321 l 564 0 l 803 0 l 501 454 l 772 718 l 539 718 l 290 460 l 290 992 z "},"l":{"ha":358,"x_min":0,"x_max":0,"o":"m 81 992 l 81 0 l 278 0 l 278 992 z "},"m":{"ha":1258,"x_min":0,"x_max":0,"o":"m 489 738 b 269 621 400 738 325 700 l 267 621 l 267 718 l 81 718 l 81 0 l 278 0 l 278 418 b 411 582 278 550 365 582 b 531 424 517 582 531 517 l 531 0 l 728 0 l 728 401 b 860 582 728 517 767 582 b 981 415 967 582 981 510 l 981 0 l 1178 0 l 1178 482 b 917 738 1178 640 1094 738 b 699 618 829 738 751 694 b 489 738 665 693 596 738 z "},"n":{"ha":824,"x_min":0,"x_max":0,"o":"m 488 738 b 267 618 394 738 314 694 l 263 618 l 263 718 l 75 718 l 75 0 l 272 0 l 272 374 b 425 582 272 501 303 582 b 551 407 517 582 551 525 l 551 0 l 749 0 l 749 447 b 488 738 749 649 669 738 z "},"o":{"ha":849,"x_min":0,"x_max":0,"o":"m 424 738 b 53 358 199 738 53 588 b 424 -19 53 132 197 -19 b 796 358 644 -19 796 126 b 424 738 796 586 651 738 z m 250 358 b 422 589 250 506 313 589 b 599 358 558 589 599 475 b 424 129 599 217 540 129 b 250 358 311 129 250 213 z "},"p":{"ha":849,"x_min":0,"x_max":0,"o":"m 479 738 b 265 626 386 738 313 701 l 263 626 l 263 718 l 75 718 l 75 -253 l 272 -253 l 272 89 l 275 89 b 490 -19 322 19 401 -19 b 806 351 697 -19 806 154 b 479 738 806 565 697 738 z m 265 357 b 435 589 265 503 326 589 b 608 357 567 589 608 467 b 438 129 608 229 560 129 b 265 357 318 129 265 228 z "},"q":{"ha":849,"x_min":0,"x_max":0,"o":"m 367 738 b 44 353 151 738 44 556 b 349 -19 44 78 217 -19 b 575 90 446 -19 532 18 l 578 90 l 578 -253 l 775 -253 l 775 718 l 588 718 l 588 626 l 585 626 b 367 738 544 699 465 738 z m 242 358 b 415 589 242 488 296 589 b 585 356 543 589 585 464 b 413 129 585 229 535 129 b 242 358 293 129 242 228 z "},"r":{"ha":540,"x_min":0,"x_max":0,"o":"m 494 738 b 265 585 396 738 303 675 l 263 585 l 263 718 l 75 718 l 75 0 l 272 0 l 272 324 b 467 554 272 456 324 554 b 538 547 494 554 518 551 l 538 731 b 494 738 528 733 514 738 z "},"s":{"ha":746,"x_min":0,"x_max":0,"o":"m 369 738 b 57 507 168 738 57 660 b 292 314 57 404 125 349 b 508 204 447 282 508 257 b 379 113 508 142 446 113 b 228 233 297 113 228 153 l 40 233 b 378 -19 46 64 182 -19 b 706 231 546 -19 706 46 b 650 360 706 285 688 326 b 408 447 607 396 554 418 b 254 539 297 469 254 493 b 364 606 254 582 288 606 b 499 508 446 606 493 578 l 686 508 b 369 738 674 657 564 738 z "},"t":{"ha":489,"x_min":0,"x_max":0,"o":"m 128 933 l 128 718 l 8 718 l 8 586 l 128 586 l 128 165 b 353 -8 128 38 201 -8 b 469 -1 392 -8 436 -7 l 469 153 b 408 147 453 149 431 147 b 325 231 342 147 325 164 l 325 586 l 469 586 l 469 718 l 325 718 l 325 933 z "},"u":{"ha":824,"x_min":0,"x_max":0,"o":"m 75 718 l 75 272 b 336 -19 75 75 149 -19 b 557 100 424 -19 507 19 l 561 100 l 561 0 l 749 0 l 749 718 l 551 718 l 551 340 b 399 136 551 199 507 136 b 272 311 301 136 272 201 l 272 718 z "},"v":{"ha":722,"x_min":0,"x_max":0,"o":"m 7 718 l 253 0 l 472 0 l 715 718 l 519 718 l 368 228 l 365 228 l 214 718 z "},"w":{"ha":1131,"x_min":0,"x_max":0,"o":"m 8 718 l 236 0 l 440 0 l 563 482 l 565 482 l 693 0 l 896 0 l 1122 718 l 919 718 l 788 232 l 785 232 l 663 718 l 471 718 l 351 231 l 349 231 l 217 718 z "},"x":{"ha":746,"x_min":0,"x_max":0,"o":"m 22 718 l 258 378 l 0 0 l 221 0 l 371 226 l 521 0 l 746 0 l 481 382 l 717 718 l 499 718 l 374 531 l 247 718 z "},"y":{"ha":721,"x_min":0,"x_max":0,"o":"m -8 718 l 244 44 b 253 0 251 25 253 13 b 165 -90 253 -51 221 -90 b 61 -83 138 -90 103 -89 l 61 -246 b 185 -253 103 -250 138 -253 b 429 -90 318 -253 388 -203 l 729 718 l 525 718 l 368 226 l 365 226 l 203 718 z "},"z":{"ha":721,"x_min":0,"x_max":0,"o":"m 58 718 l 58 569 l 404 569 l 31 149 l 31 0 l 690 0 l 690 149 l 290 149 l 664 569 l 664 718 z "},"{":{"ha":463,"x_min":0,"x_max":0,"o":"m 463 1015 l 292 1015 b 115 829 207 1015 115 940 l 115 564 b -12 442 115 492 57 444 l -12 321 b 115 206 42 319 115 285 l 115 -67 b 290 -253 115 -183 213 -253 l 463 -253 l 463 -97 l 389 -97 b 313 1 339 -97 313 -68 l 313 228 b 175 379 313 318 249 369 l 175 383 b 313 549 261 393 313 449 l 313 761 b 388 860 313 826 336 860 l 463 860 z "},"|":{"ha":310,"x_min":0,"x_max":0,"o":"m 81 1092 l 81 -297 l 229 -297 l 229 1092 z "},"}":{"ha":463,"x_min":0,"x_max":0,"o":"m 0 1015 l 0 860 l 75 860 b 150 761 125 860 150 828 l 150 544 b 288 383 150 461 192 393 l 288 379 b 150 226 218 371 150 324 l 150 3 b 75 -97 150 -62 128 -97 l 0 -97 l 0 -253 l 175 -253 b 347 -67 243 -253 347 -187 l 347 208 b 475 321 347 268 399 317 l 475 442 b 347 565 406 444 347 490 l 347 826 b 175 1015 347 954 240 1015 z "},"~":{"ha":833,"x_min":0,"x_max":0,"o":"m 685 478 b 563 378 640 408 607 378 b 439 419 533 378 501 390 b 267 472 369 451 318 472 b 93 353 196 472 138 438 l 149 224 b 265 324 181 294 218 324 b 414 276 308 324 349 308 b 567 229 476 246 519 229 b 740 349 638 229 686 269 z "}," ":{"ha":386,"x_min":0,"x_max":0,"o":""},"À":{"ha":951,"x_min":0,"x_max":0,"o":"m 367 992 l -10 0 l 211 0 l 289 221 l 660 221 l 735 0 l 961 0 l 590 992 z m 478 747 l 603 383 l 346 383 l 475 747 z m 219 1279 l 433 1082 l 571 1082 l 438 1279 z "},"Á":{"ha":951,"x_min":0,"x_max":0,"o":"m 367 992 l -10 0 l 211 0 l 289 221 l 660 221 l 735 0 l 961 0 l 590 992 z m 478 747 l 603 383 l 346 383 l 475 747 z m 515 1279 l 382 1082 l 519 1082 l 733 1279 z "},"Â":{"ha":951,"x_min":0,"x_max":0,"o":"m 367 992 l -10 0 l 211 0 l 289 221 l 660 221 l 735 0 l 961 0 l 590 992 z m 478 747 l 603 383 l 346 383 l 475 747 z m 389 1279 l 235 1082 l 388 1082 l 476 1194 l 563 1082 l 722 1082 l 569 1279 z "},"Ã":{"ha":951,"x_min":0,"x_max":0,"o":"m 367 992 l -10 0 l 211 0 l 289 221 l 660 221 l 735 0 l 961 0 l 590 992 z m 478 747 l 603 383 l 346 383 l 475 747 z m 385 1265 b 222 1096 294 1265 233 1186 l 310 1096 b 372 1154 321 1138 343 1154 b 469 1129 401 1154 428 1144 b 576 1107 508 1115 540 1107 b 732 1265 657 1107 710 1153 l 643 1265 b 583 1217 633 1229 615 1217 b 496 1239 563 1217 540 1222 b 385 1265 454 1254 422 1265 z "},"Ä":{"ha":951,"x_min":0,"x_max":0,"o":"m 367 992 l -10 0 l 211 0 l 289 221 l 660 221 l 735 0 l 961 0 l 590 992 z m 478 747 l 603 383 l 346 383 l 475 747 z m 240 1257 l 240 1094 l 428 1094 l 428 1257 z m 526 1257 l 526 1094 l 714 1094 l 714 1257 z "},"Ā":{"ha":951,"x_min":0,"x_max":0,"o":"m 367 992 l -10 0 l 211 0 l 289 221 l 660 221 l 735 0 l 961 0 l 590 992 z m 478 747 l 603 383 l 346 383 l 475 747 z m 232 1228 l 232 1124 l 722 1124 l 722 1228 z "},"Ă":{"ha":951,"x_min":0,"x_max":0,"o":"m 367 992 l -10 0 l 211 0 l 289 221 l 660 221 l 735 0 l 961 0 l 590 992 z m 478 747 l 603 383 l 346 383 l 475 747 z m 246 1279 b 467 1082 257 1153 332 1082 b 714 1279 615 1082 697 1151 l 626 1279 b 474 1186 611 1217 560 1186 b 336 1279 410 1186 346 1215 z "},"Å":{"ha":951,"x_min":0,"x_max":0,"o":"m 367 992 l -10 0 l 211 0 l 289 221 l 660 221 l 735 0 l 961 0 l 590 992 z m 478 747 l 603 383 l 346 383 l 475 747 z m 478 1351 b 315 1193 388 1351 315 1282 b 478 1035 315 1101 388 1035 b 640 1193 569 1035 640 1106 b 478 1351 640 1281 572 1351 z m 393 1193 b 476 1281 393 1249 431 1281 b 563 1193 536 1281 563 1236 b 478 1106 563 1142 529 1106 b 393 1193 428 1106 393 1142 z "},"Ą":{"ha":951,"x_min":0,"x_max":0,"o":"m 367 992 l -10 0 l 211 0 l 289 221 l 660 221 l 735 0 l 757 0 b 611 -186 656 -68 611 -124 b 763 -301 611 -257 672 -301 b 935 -210 842 -301 894 -272 l 872 -174 b 796 -218 847 -204 821 -218 b 744 -165 767 -218 744 -197 b 846 0 744 -112 776 -75 l 961 0 l 590 992 z m 478 747 l 603 383 l 346 383 l 475 747 z "},"Æ":{"ha":1363,"x_min":0,"x_max":0,"o":"m 458 992 l -15 0 l 217 0 l 317 221 l 628 221 l 628 0 l 1311 0 l 1311 183 l 839 183 l 839 426 l 1272 426 l 1272 596 l 839 596 l 839 808 l 1300 808 l 1300 992 z m 628 808 l 628 383 l 389 383 l 581 808 z "},"Ć":{"ha":1029,"x_min":0,"x_max":0,"o":"m 540 1015 b 53 492 233 1015 53 785 b 540 -24 53 201 238 -24 b 976 382 783 -24 954 132 l 765 382 b 540 160 747 240 665 160 b 271 492 358 160 271 306 b 540 832 271 692 363 832 b 757 658 649 832 742 756 l 968 658 b 540 1015 943 882 763 1015 z m 586 1279 l 453 1082 l 590 1082 l 804 1279 z "},"Ĉ":{"ha":1029,"x_min":0,"x_max":0,"o":"m 540 1015 b 53 492 233 1015 53 785 b 540 -24 53 201 238 -24 b 976 382 783 -24 954 132 l 765 382 b 540 160 747 240 665 160 b 271 492 358 160 271 306 b 540 832 271 692 363 832 b 757 658 649 832 742 756 l 968 658 b 540 1015 943 882 763 1015 z m 446 1279 l 292 1082 l 444 1082 l 533 1194 l 619 1082 l 779 1082 l 626 1279 z "},"Č":{"ha":1029,"x_min":0,"x_max":0,"o":"m 540 1015 b 53 492 233 1015 53 785 b 540 -24 53 201 238 -24 b 976 382 783 -24 954 132 l 765 382 b 540 160 747 240 665 160 b 271 492 358 160 271 306 b 540 832 271 692 363 832 b 757 658 649 832 742 756 l 968 658 b 540 1015 943 882 763 1015 z m 289 1279 l 442 1082 l 622 1082 l 776 1279 l 624 1279 l 535 1167 l 449 1279 z "},"Ċ":{"ha":1029,"x_min":0,"x_max":0,"o":"m 540 1015 b 53 492 233 1015 53 785 b 540 -24 53 201 238 -24 b 976 382 783 -24 954 132 l 765 382 b 540 160 747 240 665 160 b 271 492 358 160 271 306 b 540 832 271 692 363 832 b 757 658 649 832 742 756 l 968 658 b 540 1015 943 882 763 1015 z m 439 1257 l 439 1094 l 626 1094 l 626 1257 z "},"Ç":{"ha":1029,"x_min":0,"x_max":0,"o":"m 540 1015 b 53 492 232 1015 53 783 b 476 -19 53 219 214 8 l 410 -114 l 439 -147 b 492 -136 457 -140 472 -136 b 550 -182 526 -136 550 -154 b 488 -229 550 -210 529 -229 b 378 -204 453 -229 410 -218 l 349 -271 b 510 -301 408 -293 451 -301 b 683 -172 619 -301 683 -254 b 564 -65 683 -104 636 -65 b 508 -75 550 -65 524 -68 l 506 -72 l 542 -24 b 976 382 785 -22 954 133 l 765 382 b 540 160 747 240 665 160 b 271 492 356 160 271 310 b 540 832 271 679 354 832 b 757 658 642 832 740 763 l 968 658 b 540 1015 943 882 763 1015 z "},"Ď":{"ha":1029,"x_min":0,"x_max":0,"o":"m 96 992 l 96 0 l 526 0 b 974 501 804 0 974 189 b 521 992 974 814 796 992 z m 314 183 l 314 808 l 469 808 b 756 482 651 808 756 718 b 507 183 756 268 643 183 z m 218 1279 l 371 1082 l 551 1082 l 706 1279 l 553 1279 l 464 1167 l 378 1279 z "},"Đ":{"ha":1029,"x_min":0,"x_max":0,"o":"m 96 992 l 96 581 l -6 581 l -6 444 l 96 444 l 96 0 l 526 0 b 974 501 808 0 974 194 b 521 992 974 806 804 992 z m 314 581 l 314 808 l 468 808 b 756 482 646 808 756 725 b 508 183 756 265 639 183 l 314 183 l 314 444 l 536 444 l 536 581 z "},"Ð":{"ha":1029,"x_min":0,"x_max":0,"o":"m 96 992 l 96 581 l -6 581 l -6 444 l 96 444 l 96 0 l 526 0 b 974 501 808 0 974 194 b 521 992 974 806 804 992 z m 314 581 l 314 808 l 468 808 b 756 482 646 808 756 725 b 508 183 756 265 639 183 l 314 183 l 314 444 l 536 444 l 536 581 z "},"È":{"ha":900,"x_min":0,"x_max":0,"o":"m 96 992 l 96 0 l 849 0 l 849 183 l 314 183 l 314 426 l 794 426 l 794 596 l 314 596 l 314 808 l 838 808 l 838 992 z m 190 1279 l 404 1082 l 542 1082 l 408 1279 z "},"É":{"ha":900,"x_min":0,"x_max":0,"o":"m 96 992 l 96 0 l 849 0 l 849 183 l 314 183 l 314 426 l 794 426 l 794 596 l 314 596 l 314 808 l 838 808 l 838 992 z m 513 1279 l 379 1082 l 517 1082 l 731 1279 z "},"Ê":{"ha":900,"x_min":0,"x_max":0,"o":"m 96 992 l 96 0 l 849 0 l 849 183 l 314 183 l 314 426 l 794 426 l 794 596 l 314 596 l 314 808 l 838 808 l 838 992 z m 372 1279 l 218 1082 l 371 1082 l 460 1194 l 546 1082 l 706 1082 l 553 1279 z "},"Ě":{"ha":900,"x_min":0,"x_max":0,"o":"m 96 992 l 96 0 l 849 0 l 849 183 l 314 183 l 314 426 l 794 426 l 794 596 l 314 596 l 314 808 l 838 808 l 838 992 z m 218 1279 l 371 1082 l 551 1082 l 706 1279 l 553 1279 l 464 1167 l 378 1279 z "},"Ë":{"ha":900,"x_min":0,"x_max":0,"o":"m 96 992 l 96 0 l 849 0 l 849 183 l 314 183 l 314 426 l 794 426 l 794 596 l 314 596 l 314 808 l 838 808 l 838 992 z m 224 1257 l 224 1094 l 411 1094 l 411 1257 z m 510 1257 l 510 1094 l 697 1094 l 697 1257 z "},"Ē":{"ha":900,"x_min":0,"x_max":0,"o":"m 96 992 l 96 0 l 849 0 l 849 183 l 314 183 l 314 426 l 794 426 l 794 596 l 314 596 l 314 808 l 838 808 l 838 992 z m 215 1228 l 215 1124 l 706 1124 l 706 1228 z "},"Ĕ":{"ha":900,"x_min":0,"x_max":0,"o":"m 96 992 l 96 0 l 849 0 l 849 183 l 314 183 l 314 426 l 794 426 l 794 596 l 314 596 l 314 808 l 838 808 l 838 992 z m 229 1279 b 450 1082 240 1153 315 1082 b 697 1279 599 1082 681 1151 l 610 1279 b 457 1186 594 1217 543 1186 b 319 1279 393 1186 329 1215 z "},"Ė":{"ha":900,"x_min":0,"x_max":0,"o":"m 96 992 l 96 0 l 849 0 l 849 183 l 314 183 l 314 426 l 794 426 l 794 596 l 314 596 l 314 808 l 838 808 l 838 992 z m 365 1257 l 365 1094 l 553 1094 l 553 1257 z "},"Ę":{"ha":900,"x_min":0,"x_max":0,"o":"m 96 992 l 96 0 l 661 0 b 515 -186 556 -71 515 -126 b 667 -301 515 -256 575 -301 b 839 -210 746 -301 796 -274 l 776 -174 b 700 -218 750 -204 728 -218 b 649 -165 669 -218 649 -196 b 750 0 649 -118 675 -79 l 849 0 l 849 183 l 314 183 l 314 426 l 794 426 l 794 596 l 314 596 l 314 808 l 838 808 l 838 992 z "},"Ĝ":{"ha":1054,"x_min":0,"x_max":0,"o":"m 540 1015 b 53 492 233 1015 53 786 b 540 -24 53 203 238 -24 b 813 113 646 -24 740 19 l 835 0 l 974 0 l 974 536 l 557 536 l 557 374 l 776 374 b 540 160 763 231 679 160 b 271 492 350 160 271 318 b 540 832 271 686 360 832 b 750 665 646 832 724 776 l 958 665 b 540 1015 939 882 753 1015 z m 446 1279 l 292 1082 l 444 1082 l 533 1194 l 619 1082 l 779 1082 l 626 1279 z "},"Ğ":{"ha":1054,"x_min":0,"x_max":0,"o":"m 540 1015 b 53 492 233 1015 53 786 b 540 -24 53 203 238 -24 b 813 113 646 -24 740 19 l 835 0 l 974 0 l 974 536 l 557 536 l 557 374 l 776 374 b 540 160 763 231 679 160 b 271 492 350 160 271 318 b 540 832 271 686 360 832 b 750 665 646 832 724 776 l 958 665 b 540 1015 939 882 753 1015 z m 303 1279 b 524 1082 314 1153 389 1082 b 771 1279 672 1082 754 1151 l 683 1279 b 531 1186 668 1217 617 1186 b 393 1279 467 1186 403 1215 z "},"Ġ":{"ha":1054,"x_min":0,"x_max":0,"o":"m 540 1015 b 53 492 233 1015 53 786 b 540 -24 53 203 238 -24 b 813 113 646 -24 740 19 l 835 0 l 974 0 l 974 536 l 557 536 l 557 374 l 776 374 b 540 160 763 231 679 160 b 271 492 350 160 271 318 b 540 832 271 686 360 832 b 750 665 646 832 724 776 l 958 665 b 540 1015 939 882 753 1015 z m 439 1257 l 439 1094 l 626 1094 l 626 1257 z "},"Ģ":{"ha":1054,"x_min":0,"x_max":0,"o":"m 540 1015 b 53 492 233 1015 53 786 b 540 -24 53 203 238 -24 b 813 113 646 -24 740 19 l 835 0 l 974 0 l 974 536 l 557 536 l 557 374 l 776 374 b 540 160 763 231 679 160 b 271 492 350 160 271 318 b 540 832 271 686 360 832 b 750 665 646 832 724 776 l 958 665 b 540 1015 939 882 753 1015 z m 426 -69 l 426 -199 l 519 -199 b 440 -250 510 -233 485 -246 l 440 -301 l 449 -301 b 628 -169 569 -301 628 -272 l 628 -69 z "},"Ĥ":{"ha":1029,"x_min":0,"x_max":0,"o":"m 96 992 l 96 0 l 314 0 l 314 428 l 715 428 l 715 0 l 933 0 l 933 992 l 715 992 l 715 611 l 314 611 l 314 992 z m 425 1279 l 271 1082 l 424 1082 l 513 1194 l 599 1082 l 758 1082 l 606 1279 z "},"Ħ":{"ha":1029,"x_min":0,"x_max":0,"o":"m 96 992 l 96 0 l 314 0 l 314 390 l 715 390 l 715 0 l 933 0 l 933 992 l 715 992 l 715 840 l 314 840 l 314 992 z m 314 560 l 314 717 l 715 717 l 715 560 z "},"Ì":{"ha":410,"x_min":0,"x_max":0,"o":"m 96 992 l 96 0 l 314 0 l 314 992 z m -50 1279 l 164 1082 l 301 1082 l 168 1279 z "},"Í":{"ha":410,"x_min":0,"x_max":0,"o":"m 96 992 l 96 0 l 314 0 l 314 992 z m 238 1279 l 104 1082 l 242 1082 l 456 1279 z "},"Î":{"ha":410,"x_min":0,"x_max":0,"o":"m 96 992 l 96 0 l 314 0 l 314 992 z m 115 1279 l -39 1082 l 114 1082 l 203 1194 l 289 1082 l 449 1082 l 296 1279 z "},"Ĩ":{"ha":410,"x_min":0,"x_max":0,"o":"m 96 992 l 96 0 l 314 0 l 314 992 z m 113 1265 b -50 1096 22 1265 -39 1186 l 38 1096 b 100 1154 49 1138 71 1154 b 197 1129 129 1154 156 1144 b 304 1107 236 1115 268 1107 b 460 1265 385 1107 438 1153 l 371 1265 b 311 1217 361 1229 343 1217 b 224 1239 290 1217 268 1222 b 113 1265 182 1254 150 1265 z "},"Ï":{"ha":410,"x_min":0,"x_max":0,"o":"m 96 992 l 96 0 l 314 0 l 314 992 z m -33 1257 l -33 1094 l 154 1094 l 154 1257 z m 253 1257 l 253 1094 l 440 1094 l 440 1257 z "},"Ī":{"ha":410,"x_min":0,"x_max":0,"o":"m 96 992 l 96 0 l 314 0 l 314 992 z m -42 1228 l -42 1124 l 449 1124 l 449 1228 z "},"İ":{"ha":410,"x_min":0,"x_max":0,"o":"m 96 992 l 96 0 l 314 0 l 314 992 z m 111 1257 l 111 1094 l 299 1094 l 299 1257 z "},"Į":{"ha":410,"x_min":0,"x_max":0,"o":"m 96 992 l 96 0 l 219 0 b 67 -186 114 -62 67 -121 b 208 -301 67 -257 122 -301 b 360 -215 278 -301 319 -272 l 303 -179 b 239 -218 283 -206 263 -218 b 194 -168 214 -218 194 -201 b 314 0 194 -124 215 -82 l 314 992 z "},"Ĵ":{"ha":772,"x_min":0,"x_max":0,"o":"m 458 992 l 458 314 b 343 160 458 239 451 160 b 217 321 260 160 217 204 l 217 369 l 19 369 l 19 281 b 349 -24 19 96 147 -24 b 676 311 567 -24 676 94 l 676 992 z m 471 1279 l 317 1082 l 469 1082 l 558 1194 l 644 1082 l 804 1082 l 651 1279 z "},"Ķ":{"ha":1003,"x_min":0,"x_max":0,"o":"m 96 992 l 96 0 l 314 0 l 314 319 l 439 446 l 738 0 l 1011 0 l 586 600 l 974 992 l 701 992 l 314 581 l 314 992 z m 414 -69 l 414 -199 l 507 -199 b 428 -250 497 -233 472 -246 l 428 -301 l 436 -301 b 615 -169 557 -301 615 -272 l 615 -69 z "},"Ĺ":{"ha":824,"x_min":0,"x_max":0,"o":"m 96 992 l 96 0 l 797 0 l 797 183 l 314 183 l 314 992 z m 265 1279 l 132 1082 l 269 1082 l 483 1279 z "},"Ľ":{"ha":824,"x_min":0,"x_max":0,"o":"m 96 992 l 96 0 l 797 0 l 797 183 l 314 183 l 314 992 z m 465 992 l 422 794 l 558 794 l 671 992 z "},"Ļ":{"ha":824,"x_min":0,"x_max":0,"o":"m 96 992 l 96 0 l 797 0 l 797 183 l 314 183 l 314 992 z m 342 -69 l 342 -199 l 435 -199 b 356 -250 425 -233 400 -246 l 356 -301 l 364 -301 b 543 -169 485 -301 543 -272 l 543 -69 z "},"Ł":{"ha":824,"x_min":0,"x_max":0,"o":"m 96 992 l 96 453 l -15 375 l -15 219 l 96 297 l 96 0 l 797 0 l 797 183 l 314 183 l 314 450 l 607 656 l 607 811 l 314 606 l 314 992 z "},"Ŀ":{"ha":824,"x_min":0,"x_max":0,"o":"m 96 992 l 96 0 l 797 0 l 797 183 l 314 183 l 314 992 z m 472 625 l 472 463 l 660 463 l 660 625 z "},"Ń":{"ha":1029,"x_min":0,"x_max":0,"o":"m 96 992 l 96 0 l 300 0 l 300 664 l 303 664 l 715 0 l 933 0 l 933 992 l 729 992 l 729 326 l 726 326 l 313 992 z m 560 1279 l 426 1082 l 564 1082 l 778 1279 z "},"Ň":{"ha":1029,"x_min":0,"x_max":0,"o":"m 96 992 l 96 0 l 300 0 l 300 664 l 303 664 l 715 0 l 933 0 l 933 992 l 729 992 l 729 326 l 726 326 l 313 992 z m 265 1279 l 418 1082 l 599 1082 l 753 1279 l 600 1279 l 511 1167 l 425 1279 z "},"Ñ":{"ha":1029,"x_min":0,"x_max":0,"o":"m 96 992 l 96 0 l 300 0 l 300 664 l 303 664 l 715 0 l 933 0 l 933 992 l 729 992 l 729 326 l 726 326 l 313 992 z m 415 1265 b 253 1096 325 1265 264 1186 l 340 1096 b 403 1154 351 1138 374 1154 b 500 1129 432 1154 458 1144 b 607 1107 539 1115 571 1107 b 763 1265 688 1107 740 1153 l 674 1265 b 614 1217 664 1229 646 1217 b 526 1239 593 1217 571 1222 b 415 1265 485 1254 453 1265 z "},"Ņ":{"ha":1029,"x_min":0,"x_max":0,"o":"m 96 992 l 96 0 l 300 0 l 300 664 l 303 664 l 715 0 l 933 0 l 933 992 l 729 992 l 729 326 l 726 326 l 313 992 z m 417 -69 l 417 -199 l 510 -199 b 431 -250 500 -233 475 -246 l 431 -301 l 439 -301 b 618 -169 560 -301 618 -272 l 618 -69 z "},"Ò":{"ha":1081,"x_min":0,"x_max":0,"o":"m 540 1015 b 53 492 236 1015 53 786 b 540 -24 53 203 238 -24 b 1028 492 843 -24 1028 203 b 540 1015 1028 792 840 1015 z m 271 492 b 539 832 271 683 357 832 b 810 492 725 832 810 682 b 540 160 810 311 725 160 b 271 492 358 160 271 307 z m 269 1279 l 483 1082 l 621 1082 l 488 1279 z "},"Ó":{"ha":1081,"x_min":0,"x_max":0,"o":"m 540 1015 b 53 492 236 1015 53 786 b 540 -24 53 203 238 -24 b 1028 492 843 -24 1028 203 b 540 1015 1028 792 840 1015 z m 271 492 b 539 832 271 683 357 832 b 810 492 725 832 810 682 b 540 160 810 311 725 160 b 271 492 358 160 271 307 z m 593 1279 l 460 1082 l 597 1082 l 811 1279 z "},"Ô":{"ha":1081,"x_min":0,"x_max":0,"o":"m 540 1015 b 53 492 236 1015 53 786 b 540 -24 53 203 238 -24 b 1028 492 843 -24 1028 203 b 540 1015 1028 792 840 1015 z m 271 492 b 539 832 271 683 357 832 b 810 492 725 832 810 682 b 540 160 810 311 725 160 b 271 492 358 160 271 307 z m 453 1279 l 299 1082 l 451 1082 l 540 1194 l 626 1082 l 786 1082 l 633 1279 z "},"Õ":{"ha":1081,"x_min":0,"x_max":0,"o":"m 540 1015 b 53 492 236 1015 53 786 b 540 -24 53 203 238 -24 b 1028 492 843 -24 1028 203 b 540 1015 1028 792 840 1015 z m 271 492 b 539 832 271 683 357 832 b 810 492 725 832 810 682 b 540 160 810 311 725 160 b 271 492 358 160 271 307 z m 449 1265 b 286 1096 358 1265 297 1186 l 374 1096 b 436 1154 385 1138 407 1154 b 533 1129 465 1154 492 1144 b 640 1107 572 1115 604 1107 b 796 1265 721 1107 774 1153 l 707 1265 b 647 1217 697 1229 679 1217 b 560 1239 626 1217 604 1222 b 449 1265 518 1254 486 1265 z "},"Ö":{"ha":1081,"x_min":0,"x_max":0,"o":"m 540 1015 b 53 492 236 1015 53 786 b 540 -24 53 203 238 -24 b 1028 492 843 -24 1028 203 b 540 1015 1028 792 840 1015 z m 271 492 b 539 832 271 683 357 832 b 810 492 725 832 810 682 b 540 160 810 311 725 160 b 271 492 358 160 271 307 z m 304 1257 l 304 1094 l 492 1094 l 492 1257 z m 590 1257 l 590 1094 l 778 1094 l 778 1257 z "},"Ō":{"ha":1081,"x_min":0,"x_max":0,"o":"m 540 1015 b 53 492 236 1015 53 786 b 540 -24 53 203 238 -24 b 1028 492 843 -24 1028 203 b 540 1015 1028 792 840 1015 z m 271 492 b 539 832 271 683 357 832 b 810 492 725 832 810 682 b 540 160 810 311 725 160 b 271 492 358 160 271 307 z m 296 1228 l 296 1124 l 786 1124 l 786 1228 z "},"Ŏ":{"ha":1081,"x_min":0,"x_max":0,"o":"m 540 1015 b 53 492 236 1015 53 786 b 540 -24 53 203 238 -24 b 1028 492 843 -24 1028 203 b 540 1015 1028 792 840 1015 z m 271 492 b 539 832 271 683 357 832 b 810 492 725 832 810 682 b 540 160 810 311 725 160 b 271 492 358 160 271 307 z m 310 1279 b 531 1082 321 1153 396 1082 b 778 1279 679 1082 761 1151 l 690 1279 b 538 1186 675 1217 624 1186 b 400 1279 474 1186 410 1215 z "},"Ő":{"ha":1081,"x_min":0,"x_max":0,"o":"m 540 1015 b 53 492 236 1015 53 786 b 540 -24 53 203 238 -24 b 1028 492 843 -24 1028 203 b 540 1015 1028 792 840 1015 z m 271 492 b 539 832 271 683 357 832 b 810 492 725 832 810 682 b 540 160 810 311 725 160 b 271 492 358 160 271 307 z m 438 1279 l 311 1082 l 449 1082 l 656 1279 z m 725 1279 l 599 1082 l 736 1082 l 943 1279 z "},"Ø":{"ha":1081,"x_min":0,"x_max":0,"o":"m 964 1032 l 853 908 b 540 1015 771 979 663 1015 b 53 492 233 1015 53 785 b 167 146 53 358 90 239 l 47 14 l 115 -46 l 231 82 b 540 -24 317 10 425 -24 b 1028 492 839 -24 1028 199 b 917 842 1028 622 992 747 l 1033 971 z m 271 492 b 539 832 271 683 357 832 b 721 761 611 832 672 810 l 310 304 b 271 492 286 353 271 417 z m 772 681 b 810 492 797 625 810 565 b 540 160 810 324 735 160 b 363 228 463 160 406 185 z "},"Œ":{"ha":1518,"x_min":0,"x_max":0,"o":"m 518 1015 b 53 490 218 1015 53 758 b 514 -24 53 207 228 -24 b 753 75 604 -24 694 11 l 756 75 l 756 0 l 1460 0 l 1460 183 l 958 183 l 958 426 l 1408 426 l 1408 596 l 958 596 l 958 808 l 1450 808 l 1450 992 l 756 992 l 756 921 l 753 921 b 518 1015 704 983 618 1015 z m 271 493 b 532 832 271 671 349 832 b 747 624 663 832 747 742 l 747 385 b 529 160 747 256 667 160 b 271 493 347 160 271 325 z "},"Ŕ":{"ha":1003,"x_min":0,"x_max":0,"o":"m 96 992 l 96 0 l 314 0 l 314 388 l 533 388 b 704 172 671 388 693 311 b 732 0 710 101 715 42 l 950 0 b 911 182 925 35 915 88 b 764 467 907 275 903 428 l 764 469 b 921 718 868 511 921 593 b 631 992 921 871 806 992 z m 314 543 l 314 822 l 553 822 b 703 685 649 822 703 783 b 554 543 703 581 646 543 z m 521 1279 l 388 1082 l 525 1082 l 739 1279 z "},"Ř":{"ha":1003,"x_min":0,"x_max":0,"o":"m 96 992 l 96 0 l 314 0 l 314 388 l 533 388 b 704 172 671 388 693 311 b 732 0 710 101 715 42 l 950 0 b 911 182 925 35 915 88 b 764 467 907 275 903 428 l 764 469 b 921 718 868 511 921 593 b 631 992 921 871 806 992 z m 314 543 l 314 822 l 553 822 b 703 685 649 822 703 783 b 554 543 703 581 646 543 z m 226 1279 l 379 1082 l 560 1082 l 714 1279 l 561 1279 l 472 1167 l 386 1279 z "},"Ŗ":{"ha":1003,"x_min":0,"x_max":0,"o":"m 96 992 l 96 0 l 314 0 l 314 388 l 533 388 b 704 172 671 388 693 311 b 732 0 710 101 715 42 l 950 0 b 911 182 925 35 915 88 b 764 467 907 275 903 428 l 764 469 b 921 718 868 511 921 593 b 631 992 921 871 806 992 z m 314 543 l 314 822 l 553 822 b 703 685 649 822 703 783 b 554 543 703 581 646 543 z m 410 -69 l 410 -199 l 503 -199 b 424 -250 493 -233 468 -246 l 424 -301 l 432 -301 b 611 -169 553 -301 611 -272 l 611 -69 z "},"Ś":{"ha":901,"x_min":0,"x_max":0,"o":"m 438 1015 b 67 717 256 1015 67 917 b 285 456 67 590 135 506 b 486 401 349 435 413 421 b 657 269 608 371 657 332 b 463 146 657 179 563 146 b 244 329 360 146 244 189 l 33 329 l 33 322 b 456 -24 33 76 246 -24 b 868 294 719 -24 868 107 b 542 592 868 504 689 554 b 278 733 319 647 278 661 b 429 846 278 811 349 846 b 624 696 558 846 617 796 l 835 696 b 438 1015 835 921 650 1015 z m 507 1279 l 374 1082 l 511 1082 l 725 1279 z "},"Ŝ":{"ha":901,"x_min":0,"x_max":0,"o":"m 438 1015 b 67 717 256 1015 67 917 b 285 456 67 590 135 506 b 486 401 349 435 413 421 b 657 269 608 371 657 332 b 463 146 657 179 563 146 b 244 329 360 146 244 189 l 33 329 l 33 322 b 456 -24 33 76 246 -24 b 868 294 719 -24 868 107 b 542 592 868 504 689 554 b 278 733 319 647 278 661 b 429 846 278 811 349 846 b 624 696 558 846 617 796 l 835 696 b 438 1015 835 921 650 1015 z m 367 1279 l 213 1082 l 365 1082 l 454 1194 l 540 1082 l 700 1082 l 547 1279 z "},"Š":{"ha":901,"x_min":0,"x_max":0,"o":"m 438 1015 b 67 717 256 1015 67 917 b 285 456 67 590 135 506 b 486 401 349 435 413 421 b 657 269 608 371 657 332 b 463 146 657 179 563 146 b 244 329 360 146 244 189 l 33 329 l 33 322 b 456 -24 33 76 246 -24 b 868 294 719 -24 868 107 b 542 592 868 504 689 554 b 278 733 319 647 278 661 b 429 846 278 811 349 846 b 624 696 558 846 617 796 l 835 696 b 438 1015 835 921 650 1015 z m 213 1279 l 365 1082 l 546 1082 l 700 1279 l 547 1279 l 458 1167 l 372 1279 z "},"Ş":{"ha":901,"x_min":0,"x_max":0,"o":"m 438 1015 b 67 715 254 1015 67 917 b 297 451 67 574 156 496 b 482 403 361 432 411 421 b 657 269 608 371 657 333 b 463 146 657 182 568 146 b 244 329 360 146 244 189 l 33 329 l 33 319 b 397 -21 33 121 179 0 l 331 -114 l 360 -147 b 411 -136 378 -140 393 -136 b 471 -182 449 -136 471 -154 b 407 -229 471 -211 449 -229 b 299 -204 374 -229 331 -218 l 269 -271 b 429 -301 325 -292 369 -301 b 604 -172 540 -301 604 -254 b 485 -65 604 -101 554 -65 b 429 -75 469 -65 446 -68 l 426 -72 l 463 -24 b 868 294 719 -21 868 107 b 603 576 868 442 772 535 b 369 639 481 607 410 625 b 278 733 296 664 278 686 b 429 846 278 813 351 846 b 624 696 558 846 618 794 l 835 696 b 438 1015 835 917 656 1015 z "},"Ș":{"ha":901,"x_min":0,"x_max":0,"o":"m 438 1015 b 67 717 256 1015 67 917 b 285 456 67 590 135 506 b 486 401 349 435 413 421 b 657 269 608 371 657 332 b 463 146 657 179 563 146 b 244 329 360 146 244 189 l 33 329 l 33 322 b 456 -24 33 76 246 -24 b 868 294 719 -24 868 107 b 542 592 868 504 689 554 b 278 733 319 647 278 661 b 429 846 278 811 349 846 b 624 696 558 846 617 796 l 835 696 b 438 1015 835 921 650 1015 z m 342 -69 l 342 -199 l 435 -199 b 356 -250 425 -233 400 -246 l 356 -301 l 364 -301 b 543 -169 485 -301 543 -272 l 543 -69 z "},"Ť":{"ha":849,"x_min":0,"x_max":0,"o":"m 18 992 l 18 808 l 315 808 l 315 0 l 533 0 l 533 808 l 831 808 l 831 992 z m 181 1279 l 333 1082 l 514 1082 l 668 1279 l 515 1279 l 426 1167 l 340 1279 z "},"Ţ":{"ha":849,"x_min":0,"x_max":0,"o":"m 18 992 l 18 808 l 315 808 l 315 0 l 533 0 l 533 808 l 831 808 l 831 992 z m 324 -69 l 324 -199 l 417 -199 b 338 -250 407 -233 382 -246 l 338 -301 l 346 -301 b 525 -169 467 -301 525 -272 l 525 -69 z "},"Ț":{"ha":849,"x_min":0,"x_max":0,"o":"m 18 992 l 18 808 l 315 808 l 315 0 l 533 0 l 533 808 l 831 808 l 831 992 z m 324 -69 l 324 -199 l 417 -199 b 338 -250 407 -233 382 -246 l 338 -301 l 346 -301 b 525 -169 467 -301 525 -272 l 525 -69 z "},"Ŧ":{"ha":849,"x_min":0,"x_max":0,"o":"m 18 992 l 18 808 l 315 808 l 315 642 l 111 642 l 111 508 l 315 508 l 315 0 l 533 0 l 533 508 l 738 508 l 738 642 l 533 642 l 533 808 l 831 808 l 831 992 z "},"Þ":{"ha":926,"x_min":0,"x_max":0,"o":"m 96 992 l 96 0 l 314 0 l 314 221 l 543 221 b 886 539 781 221 886 367 b 546 857 886 722 769 857 l 314 857 l 314 992 z m 314 390 l 314 688 l 485 688 b 675 539 615 688 675 643 b 488 390 675 435 614 390 z "},"Ù":{"ha":1029,"x_min":0,"x_max":0,"o":"m 92 992 l 92 371 b 514 -24 92 124 226 -24 b 938 371 794 -24 938 124 l 938 992 l 719 992 l 719 371 b 514 160 719 225 667 160 b 310 371 374 160 310 225 l 310 992 z m 243 1279 l 457 1082 l 594 1082 l 461 1279 z "},"Ú":{"ha":1029,"x_min":0,"x_max":0,"o":"m 92 992 l 92 371 b 514 -24 92 124 226 -24 b 938 371 794 -24 938 124 l 938 992 l 719 992 l 719 371 b 514 160 719 225 667 160 b 310 371 374 160 310 225 l 310 992 z m 567 1279 l 433 1082 l 571 1082 l 785 1279 z "},"Û":{"ha":1029,"x_min":0,"x_max":0,"o":"m 92 992 l 92 371 b 514 -24 92 124 226 -24 b 938 371 794 -24 938 124 l 938 992 l 719 992 l 719 371 b 514 160 719 225 667 160 b 310 371 374 160 310 225 l 310 992 z m 426 1279 l 272 1082 l 425 1082 l 514 1194 l 600 1082 l 760 1082 l 607 1279 z "},"Ũ":{"ha":1029,"x_min":0,"x_max":0,"o":"m 92 992 l 92 371 b 514 -24 92 124 226 -24 b 938 371 794 -24 938 124 l 938 992 l 719 992 l 719 371 b 514 160 719 225 667 160 b 310 371 374 160 310 225 l 310 992 z m 422 1265 b 260 1096 332 1265 271 1186 l 347 1096 b 410 1154 358 1138 381 1154 b 507 1129 439 1154 465 1144 b 614 1107 546 1115 578 1107 b 769 1265 694 1107 747 1153 l 681 1265 b 621 1217 671 1229 653 1217 b 533 1239 600 1217 578 1222 b 422 1265 492 1254 460 1265 z "},"Ü":{"ha":1029,"x_min":0,"x_max":0,"o":"m 92 992 l 92 371 b 514 -24 92 124 226 -24 b 938 371 794 -24 938 124 l 938 992 l 719 992 l 719 371 b 514 160 719 225 667 160 b 310 371 374 160 310 225 l 310 992 z m 278 1257 l 278 1094 l 465 1094 l 465 1257 z m 564 1257 l 564 1094 l 751 1094 l 751 1257 z "},"Ū":{"ha":1029,"x_min":0,"x_max":0,"o":"m 92 992 l 92 371 b 514 -24 92 124 226 -24 b 938 371 794 -24 938 124 l 938 992 l 719 992 l 719 371 b 514 160 719 225 667 160 b 310 371 374 160 310 225 l 310 992 z m 269 1228 l 269 1124 l 760 1124 l 760 1228 z "},"Ŭ":{"ha":1029,"x_min":0,"x_max":0,"o":"m 92 992 l 92 371 b 514 -24 92 124 226 -24 b 938 371 794 -24 938 124 l 938 992 l 719 992 l 719 371 b 514 160 719 225 667 160 b 310 371 374 160 310 225 l 310 992 z m 283 1279 b 504 1082 294 1153 369 1082 b 751 1279 653 1082 735 1151 l 664 1279 b 511 1186 649 1217 597 1186 b 374 1279 447 1186 383 1215 z "},"Ů":{"ha":1029,"x_min":0,"x_max":0,"o":"m 92 992 l 92 371 b 514 -24 92 124 226 -24 b 938 371 794 -24 938 124 l 938 992 l 719 992 l 719 371 b 514 160 719 225 667 160 b 310 371 374 160 310 225 l 310 992 z m 514 1351 b 351 1193 424 1351 351 1282 b 514 1035 351 1101 424 1035 b 676 1193 606 1035 676 1106 b 514 1351 676 1281 608 1351 z m 429 1193 b 513 1281 429 1249 467 1281 b 599 1193 572 1281 599 1236 b 514 1106 599 1142 565 1106 b 429 1193 464 1106 429 1142 z "},"Ű":{"ha":1029,"x_min":0,"x_max":0,"o":"m 92 992 l 92 371 b 514 -24 92 124 226 -24 b 938 371 794 -24 938 124 l 938 992 l 719 992 l 719 371 b 514 160 719 225 667 160 b 310 371 374 160 310 225 l 310 992 z m 411 1279 l 285 1082 l 422 1082 l 629 1279 z m 699 1279 l 572 1082 l 710 1082 l 917 1279 z "},"Ų":{"ha":1029,"x_min":0,"x_max":0,"o":"m 92 992 l 92 372 b 467 -22 92 139 211 -7 b 353 -186 385 -81 353 -132 b 504 -301 353 -256 413 -301 b 676 -210 583 -301 635 -274 l 614 -174 b 538 -218 589 -204 564 -218 b 486 -165 508 -218 486 -197 b 567 -22 486 -115 515 -79 b 938 369 813 -6 938 140 l 938 992 l 719 992 l 719 371 b 514 160 719 226 667 160 b 310 369 374 160 310 225 l 310 992 z "},"Ŵ":{"ha":1311,"x_min":0,"x_max":0,"o":"m 4 992 l 267 0 l 488 0 l 653 675 l 656 675 l 824 0 l 1040 0 l 1307 992 l 1093 992 l 931 308 l 928 308 l 758 992 l 554 992 l 382 317 l 379 317 l 222 992 z m 569 1279 l 415 1082 l 568 1082 l 657 1194 l 743 1082 l 903 1082 l 750 1279 z "},"Ý":{"ha":926,"x_min":0,"x_max":0,"o":"m -12 992 l 353 386 l 353 0 l 571 0 l 571 381 l 939 992 l 696 992 l 465 600 l 233 992 z m 519 1279 l 386 1082 l 524 1082 l 738 1279 z "},"Ŷ":{"ha":926,"x_min":0,"x_max":0,"o":"m -12 992 l 353 386 l 353 0 l 571 0 l 571 381 l 939 992 l 696 992 l 465 600 l 233 992 z m 379 1279 l 225 1082 l 378 1082 l 467 1194 l 553 1082 l 713 1082 l 560 1279 z "},"Ÿ":{"ha":926,"x_min":0,"x_max":0,"o":"m -12 992 l 353 386 l 353 0 l 571 0 l 571 381 l 939 992 l 696 992 l 465 600 l 233 992 z m 231 1257 l 231 1094 l 418 1094 l 418 1257 z m 517 1257 l 517 1094 l 704 1094 l 704 1257 z "},"Ź":{"ha":900,"x_min":0,"x_max":0,"o":"m 74 992 l 74 808 l 564 808 l 32 172 l 32 0 l 868 0 l 868 183 l 322 183 l 854 819 l 854 992 z m 514 1279 l 381 1082 l 518 1082 l 732 1279 z "},"Ž":{"ha":900,"x_min":0,"x_max":0,"o":"m 74 992 l 74 808 l 564 808 l 32 172 l 32 0 l 868 0 l 868 183 l 322 183 l 854 819 l 854 992 z m 219 1279 l 372 1082 l 553 1082 l 707 1279 l 554 1279 l 465 1167 l 379 1279 z "},"Ż":{"ha":900,"x_min":0,"x_max":0,"o":"m 74 992 l 74 808 l 564 808 l 32 172 l 32 0 l 868 0 l 868 183 l 322 183 l 854 819 l 854 992 z m 367 1257 l 367 1094 l 554 1094 l 554 1257 z "},"à":{"ha":797,"x_min":0,"x_max":0,"o":"m 406 738 b 67 497 204 738 75 654 l 264 497 b 396 606 271 572 314 606 b 522 510 463 606 522 592 b 339 421 522 446 467 435 b 107 349 219 408 153 388 b 44 196 67 314 44 265 b 289 -19 44 57 142 -19 b 531 69 390 -19 475 11 b 544 0 532 46 538 22 l 744 0 b 719 153 726 29 719 96 l 719 533 b 406 738 719 667 615 738 z m 242 204 b 403 317 242 282 301 304 b 522 351 469 325 504 335 l 522 275 b 363 113 522 169 468 113 b 242 204 276 113 242 147 z m 143 1015 l 357 818 l 494 818 l 361 1015 z "},"á":{"ha":797,"x_min":0,"x_max":0,"o":"m 406 738 b 67 497 204 738 75 654 l 264 497 b 396 606 271 572 314 606 b 522 510 463 606 522 592 b 339 421 522 446 467 435 b 107 349 219 408 153 388 b 44 196 67 314 44 265 b 289 -19 44 57 142 -19 b 531 69 390 -19 475 11 b 544 0 532 46 538 22 l 744 0 b 719 153 726 29 719 96 l 719 533 b 406 738 719 667 615 738 z m 242 204 b 403 317 242 282 301 304 b 522 351 469 325 504 335 l 522 275 b 363 113 522 169 468 113 b 242 204 276 113 242 147 z m 456 1015 l 322 818 l 460 818 l 674 1015 z "},"â":{"ha":797,"x_min":0,"x_max":0,"o":"m 406 738 b 67 497 204 738 75 654 l 264 497 b 396 606 271 572 314 606 b 522 510 463 606 522 592 b 339 421 522 446 467 435 b 107 349 219 408 153 388 b 44 196 67 314 44 265 b 289 -19 44 57 142 -19 b 531 69 390 -19 475 11 b 544 0 532 46 538 22 l 744 0 b 719 153 726 29 719 96 l 719 533 b 406 738 719 667 615 738 z m 242 204 b 403 317 242 282 301 304 b 522 351 469 325 504 335 l 522 275 b 363 113 522 169 468 113 b 242 204 276 113 242 147 z m 321 1015 l 167 818 l 319 818 l 408 931 l 494 818 l 654 818 l 501 1015 z "},"ã":{"ha":797,"x_min":0,"x_max":0,"o":"m 406 738 b 67 497 204 738 75 654 l 264 497 b 396 606 271 572 314 606 b 522 510 463 606 522 592 b 339 421 522 446 467 435 b 107 349 219 408 153 388 b 44 196 67 314 44 265 b 289 -19 44 57 142 -19 b 531 69 390 -19 475 11 b 544 0 532 46 538 22 l 744 0 b 719 153 726 29 719 96 l 719 533 b 406 738 719 667 615 738 z m 242 204 b 403 317 242 282 301 304 b 522 351 469 325 504 335 l 522 275 b 363 113 522 169 468 113 b 242 204 276 113 242 147 z m 317 1001 b 154 832 224 1001 165 919 l 242 832 b 304 890 253 872 274 890 b 401 865 333 890 360 881 b 508 843 444 850 475 843 b 664 1001 586 843 642 886 l 575 1001 b 515 953 565 967 549 953 b 421 978 490 953 464 961 b 317 1001 372 996 343 1001 z "},"ä":{"ha":797,"x_min":0,"x_max":0,"o":"m 406 738 b 67 497 204 738 75 654 l 264 497 b 396 606 271 572 314 606 b 522 510 463 606 522 592 b 339 421 522 446 467 435 b 107 349 219 408 153 388 b 44 196 67 314 44 265 b 289 -19 44 57 142 -19 b 531 69 390 -19 475 11 b 544 0 532 46 538 22 l 744 0 b 719 153 726 29 719 96 l 719 533 b 406 738 719 667 615 738 z m 242 204 b 403 317 242 282 301 304 b 522 351 469 325 504 335 l 522 275 b 363 113 522 169 468 113 b 242 204 276 113 242 147 z m 172 993 l 172 831 l 360 831 l 360 993 z m 458 993 l 458 831 l 646 831 l 646 993 z "},"ā":{"ha":797,"x_min":0,"x_max":0,"o":"m 406 738 b 67 497 204 738 75 654 l 264 497 b 396 606 271 572 314 606 b 522 510 463 606 522 592 b 339 421 522 446 467 435 b 107 349 219 408 153 388 b 44 196 67 314 44 265 b 289 -19 44 57 142 -19 b 531 69 390 -19 475 11 b 544 0 532 46 538 22 l 744 0 b 719 153 726 29 719 96 l 719 533 b 406 738 719 667 615 738 z m 242 204 b 403 317 242 282 301 304 b 522 351 469 325 504 335 l 522 275 b 363 113 522 169 468 113 b 242 204 276 113 242 147 z m 164 964 l 164 860 l 654 860 l 654 964 z "},"ă":{"ha":797,"x_min":0,"x_max":0,"o":"m 406 738 b 67 497 204 738 75 654 l 264 497 b 396 606 271 572 314 606 b 522 510 463 606 522 592 b 339 421 522 446 467 435 b 107 349 219 408 153 388 b 44 196 67 314 44 265 b 289 -19 44 57 142 -19 b 531 69 390 -19 475 11 b 544 0 532 46 538 22 l 744 0 b 719 153 726 29 719 96 l 719 533 b 406 738 719 667 615 738 z m 242 204 b 403 317 242 282 301 304 b 522 351 469 325 504 335 l 522 275 b 363 113 522 169 468 113 b 242 204 276 113 242 147 z m 178 1015 b 399 818 189 888 265 818 b 646 1015 546 818 629 886 l 558 1015 b 406 922 542 951 492 922 b 268 1015 335 922 276 957 z "},"å":{"ha":797,"x_min":0,"x_max":0,"o":"m 406 738 b 67 497 204 738 75 654 l 264 497 b 396 606 271 572 314 606 b 522 510 463 606 522 592 b 339 421 522 446 467 435 b 107 349 219 408 153 388 b 44 196 67 314 44 265 b 289 -19 44 57 142 -19 b 531 69 390 -19 475 11 b 544 0 532 46 538 22 l 744 0 b 719 153 726 29 719 96 l 719 533 b 406 738 719 667 615 738 z m 242 204 b 403 317 242 282 301 304 b 522 351 469 325 504 335 l 522 275 b 363 113 522 169 468 113 b 242 204 276 113 242 147 z m 411 1117 b 240 950 314 1117 240 1044 b 410 783 240 857 308 783 b 581 950 506 783 581 854 b 411 1117 581 1044 511 1117 z m 322 950 b 410 1043 322 1008 361 1043 b 499 950 469 1043 499 1000 b 410 857 499 894 463 857 b 322 950 353 857 322 899 z "},"ą":{"ha":797,"x_min":0,"x_max":0,"o":"m 406 738 b 67 497 204 738 75 654 l 264 497 b 396 606 271 572 314 606 b 522 510 474 606 522 585 b 338 421 522 453 486 436 b 107 349 217 408 149 385 b 44 196 65 314 44 263 b 289 -19 44 57 142 -19 b 531 69 392 -19 475 11 b 556 0 533 49 540 29 b 426 -185 465 -69 426 -122 b 578 -301 426 -256 488 -301 b 750 -210 657 -301 708 -274 l 688 -174 b 611 -218 660 -206 638 -218 b 558 -164 581 -218 558 -197 b 653 0 558 -108 589 -64 l 744 0 b 719 153 726 29 719 96 l 719 535 b 406 738 719 665 617 738 z m 242 204 b 383 314 242 269 282 300 b 522 351 467 325 497 331 l 522 275 b 363 113 522 169 468 113 b 242 204 278 113 242 147 z "},"æ":{"ha":1260,"x_min":0,"x_max":0,"o":"m 410 738 b 72 494 221 738 78 661 l 269 494 b 407 606 274 568 318 606 b 535 514 492 606 535 575 b 336 421 535 456 492 440 b 83 311 179 400 124 371 b 53 194 63 281 53 243 b 321 -19 53 50 164 -19 b 614 103 440 -19 553 22 b 882 -19 671 21 769 -19 b 1213 225 1033 -19 1169 67 l 1021 225 b 878 113 1007 149 960 113 b 707 303 776 113 707 204 l 707 311 l 1219 311 b 889 738 1218 579 1096 738 b 649 640 774 738 707 707 b 410 738 606 703 515 738 z m 707 436 b 867 606 708 539 781 606 b 1022 436 969 606 1022 524 z m 250 206 b 393 311 250 257 276 296 b 535 350 496 325 514 335 l 535 260 b 372 113 535 160 449 113 b 250 206 293 113 250 146 z "},"ć":{"ha":797,"x_min":0,"x_max":0,"o":"m 419 738 b 53 349 192 738 53 578 b 415 -19 53 140 192 -19 b 761 275 607 -19 735 86 l 571 275 b 414 129 557 179 501 129 b 250 356 299 129 250 238 b 418 589 250 472 299 589 b 564 465 503 589 551 547 l 757 465 b 419 738 747 638 603 738 z m 469 1015 l 336 818 l 474 818 l 688 1015 z "},"ĉ":{"ha":797,"x_min":0,"x_max":0,"o":"m 419 738 b 53 349 192 738 53 578 b 415 -19 53 140 192 -19 b 761 275 607 -19 735 86 l 571 275 b 414 129 557 179 501 129 b 250 356 299 129 250 238 b 418 589 250 472 299 589 b 564 465 503 589 551 547 l 757 465 b 419 738 747 638 603 738 z m 335 1015 l 181 818 l 333 818 l 422 931 l 508 818 l 668 818 l 515 1015 z "},"č":{"ha":797,"x_min":0,"x_max":0,"o":"m 419 738 b 53 349 192 738 53 578 b 415 -19 53 140 192 -19 b 761 275 607 -19 735 86 l 571 275 b 414 129 557 179 501 129 b 250 356 299 129 250 238 b 418 589 250 472 299 589 b 564 465 503 589 551 547 l 757 465 b 419 738 747 638 603 738 z m 181 1015 l 333 818 l 514 818 l 668 1015 l 515 1015 l 426 903 l 340 1015 z "},"ċ":{"ha":797,"x_min":0,"x_max":0,"o":"m 419 738 b 53 349 192 738 53 578 b 415 -19 53 140 192 -19 b 761 275 607 -19 735 86 l 571 275 b 414 129 557 179 501 129 b 250 356 299 129 250 238 b 418 589 250 472 299 589 b 564 465 503 589 551 547 l 757 465 b 419 738 747 638 603 738 z m 329 993 l 329 831 l 517 831 l 517 993 z "},"ç":{"ha":797,"x_min":0,"x_max":0,"o":"m 419 738 b 53 349 193 738 53 581 b 368 -17 53 161 167 4 l 299 -114 l 328 -147 b 381 -136 349 -139 364 -136 b 439 -182 415 -136 439 -154 b 376 -229 439 -215 411 -229 b 267 -204 342 -229 299 -218 l 238 -271 b 399 -301 296 -293 342 -301 b 572 -172 508 -301 572 -254 b 453 -65 572 -106 526 -65 b 397 -75 436 -65 414 -68 l 394 -72 l 433 -19 b 761 275 625 -12 738 103 l 571 275 b 414 129 558 183 504 129 b 250 356 294 129 250 244 b 418 589 250 465 294 589 b 564 465 503 589 551 547 l 757 465 b 419 738 747 639 600 738 z "},"ď":{"ha":849,"x_min":0,"x_max":0,"o":"m 578 992 l 578 631 l 575 631 b 363 738 532 700 449 738 b 44 365 156 738 44 564 b 367 -19 44 161 153 -19 b 585 92 465 -19 542 18 l 588 92 l 588 0 l 775 0 l 775 992 z m 242 360 b 414 589 242 499 301 589 b 585 361 535 589 585 492 b 415 129 585 217 528 129 b 242 360 294 129 242 246 z m 883 992 l 840 794 l 976 794 l 1089 992 z "},"đ":{"ha":863,"x_min":0,"x_max":0,"o":"m 578 992 l 578 894 l 358 894 l 358 789 l 578 789 l 578 631 l 575 631 b 363 738 532 699 451 738 b 44 365 156 738 44 564 b 367 -19 44 161 153 -19 b 585 92 465 -19 542 18 l 588 92 l 588 0 l 775 0 l 775 789 l 888 789 l 888 894 l 775 894 l 775 992 z m 242 360 b 414 589 242 497 301 589 b 585 361 540 589 585 483 b 415 129 585 231 536 129 b 242 360 299 129 242 239 z "},"ð":{"ha":849,"x_min":0,"x_max":0,"o":"m 240 935 b 343 888 260 926 311 906 l 215 828 l 279 746 l 442 824 b 576 633 492 788 544 718 l 574 633 b 379 703 525 678 458 703 b 53 347 160 703 53 533 b 424 -19 53 138 196 -19 b 796 378 650 -19 796 147 b 583 893 796 599 729 761 l 707 950 l 643 1032 l 496 963 b 343 1032 458 986 415 1008 z m 250 357 b 421 571 250 479 308 571 b 599 357 554 571 599 457 b 424 129 599 229 549 129 b 250 357 288 129 250 249 z "},"è":{"ha":797,"x_min":0,"x_max":0,"o":"m 407 738 b 40 358 190 738 40 575 b 407 -19 40 138 179 -19 b 743 222 579 -19 690 60 l 569 222 b 413 129 554 172 488 129 b 238 311 300 129 243 188 l 756 311 b 757 347 756 311 757 336 b 407 738 757 560 633 738 z m 238 436 b 400 589 246 531 304 589 b 558 436 492 589 539 544 z m 142 1015 l 356 818 l 493 818 l 360 1015 z "},"é":{"ha":797,"x_min":0,"x_max":0,"o":"m 407 738 b 40 358 190 738 40 575 b 407 -19 40 138 179 -19 b 743 222 579 -19 690 60 l 569 222 b 413 129 554 172 488 129 b 238 311 300 129 243 188 l 756 311 b 757 347 756 311 757 336 b 407 738 757 560 633 738 z m 238 436 b 400 589 246 531 304 589 b 558 436 492 589 539 544 z m 454 1015 l 321 818 l 458 818 l 672 1015 z "},"ê":{"ha":797,"x_min":0,"x_max":0,"o":"m 407 738 b 40 358 190 738 40 575 b 407 -19 40 138 179 -19 b 743 222 579 -19 690 60 l 569 222 b 413 129 554 172 488 129 b 238 311 300 129 243 188 l 756 311 b 757 347 756 311 757 336 b 407 738 757 560 633 738 z m 238 436 b 400 589 246 531 304 589 b 558 436 492 589 539 544 z m 319 1015 l 165 818 l 318 818 l 407 931 l 493 818 l 653 818 l 500 1015 z "},"ě":{"ha":797,"x_min":0,"x_max":0,"o":"m 407 738 b 40 358 190 738 40 575 b 407 -19 40 138 179 -19 b 743 222 579 -19 690 60 l 569 222 b 413 129 554 172 488 129 b 238 311 300 129 243 188 l 756 311 b 757 347 756 311 757 336 b 407 738 757 560 633 738 z m 238 436 b 400 589 246 531 304 589 b 558 436 492 589 539 544 z m 165 1015 l 318 818 l 499 818 l 653 1015 l 500 1015 l 411 903 l 325 1015 z "},"ë":{"ha":797,"x_min":0,"x_max":0,"o":"m 407 738 b 40 358 190 738 40 575 b 407 -19 40 138 179 -19 b 743 222 579 -19 690 60 l 569 222 b 413 129 554 172 488 129 b 238 311 300 129 243 188 l 756 311 b 757 347 756 311 757 336 b 407 738 757 560 633 738 z m 238 436 b 400 589 246 531 304 589 b 558 436 492 589 539 544 z m 171 993 l 171 831 l 358 831 l 358 993 z m 457 993 l 457 831 l 644 831 l 644 993 z "},"ē":{"ha":797,"x_min":0,"x_max":0,"o":"m 407 738 b 40 358 190 738 40 575 b 407 -19 40 138 179 -19 b 743 222 579 -19 690 60 l 569 222 b 413 129 554 172 488 129 b 238 311 300 129 243 188 l 756 311 b 757 347 756 311 757 336 b 407 738 757 560 633 738 z m 238 436 b 400 589 246 531 304 589 b 558 436 492 589 539 544 z m 163 964 l 163 860 l 653 860 l 653 964 z "},"ĕ":{"ha":797,"x_min":0,"x_max":0,"o":"m 407 738 b 40 358 190 738 40 575 b 407 -19 40 138 179 -19 b 743 222 579 -19 690 60 l 569 222 b 413 129 554 172 488 129 b 238 311 300 129 243 188 l 756 311 b 757 347 756 311 757 336 b 407 738 757 560 633 738 z m 238 436 b 400 589 246 531 304 589 b 558 436 492 589 539 544 z m 176 1015 b 397 818 188 888 264 818 b 644 1015 544 818 628 886 l 557 1015 b 404 922 540 951 490 922 b 267 1015 333 922 275 957 z "},"ė":{"ha":797,"x_min":0,"x_max":0,"o":"m 407 738 b 40 358 190 738 40 575 b 407 -19 40 138 179 -19 b 743 222 579 -19 690 60 l 569 222 b 413 129 554 172 488 129 b 238 311 300 129 243 188 l 756 311 b 757 347 756 311 757 336 b 407 738 757 560 633 738 z m 238 436 b 400 589 246 531 304 589 b 558 436 492 589 539 544 z m 313 993 l 313 831 l 500 831 l 500 993 z "},"ę":{"ha":797,"x_min":0,"x_max":0,"o":"m 407 738 b 40 358 189 738 40 575 b 363 -17 40 157 157 3 b 242 -186 279 -76 242 -128 b 393 -301 242 -257 303 -301 b 565 -210 471 -301 522 -275 l 503 -174 b 426 -218 479 -201 456 -218 b 375 -165 397 -218 375 -197 b 460 -17 375 -124 393 -89 b 743 222 607 0 697 83 l 569 222 b 414 129 554 172 488 129 b 238 311 300 129 243 188 l 756 311 b 757 347 756 311 757 340 b 407 738 757 561 632 738 z m 238 436 b 400 589 244 517 293 589 b 558 436 492 589 539 543 z "},"ĝ":{"ha":849,"x_min":0,"x_max":0,"o":"m 361 738 b 53 382 160 738 53 565 b 360 21 53 172 153 21 b 575 132 457 21 536 63 l 578 132 l 578 33 b 419 -140 578 -76 521 -140 b 272 -42 343 -140 289 -111 l 76 -42 b 394 -272 85 -187 228 -272 b 765 44 657 -272 765 -142 l 765 718 l 578 718 l 578 622 l 575 622 b 361 738 531 699 464 738 z m 250 385 b 408 589 250 503 307 589 b 578 369 547 589 578 469 b 410 169 578 257 517 169 b 250 385 296 169 250 268 z m 342 1015 l 188 818 l 340 818 l 429 931 l 515 818 l 675 818 l 522 1015 z "},"ğ":{"ha":849,"x_min":0,"x_max":0,"o":"m 361 738 b 53 382 160 738 53 565 b 360 21 53 172 153 21 b 575 132 457 21 536 63 l 578 132 l 578 33 b 419 -140 578 -76 521 -140 b 272 -42 343 -140 289 -111 l 76 -42 b 394 -272 85 -187 228 -272 b 765 44 657 -272 765 -142 l 765 718 l 578 718 l 578 622 l 575 622 b 361 738 531 699 464 738 z m 250 385 b 408 589 250 503 307 589 b 578 369 547 589 578 469 b 410 169 578 257 517 169 b 250 385 296 169 250 268 z m 199 1015 b 419 818 210 888 286 818 b 667 1015 567 818 650 886 l 579 1015 b 426 922 563 951 513 922 b 289 1015 356 922 297 957 z "},"ġ":{"ha":849,"x_min":0,"x_max":0,"o":"m 361 738 b 53 382 160 738 53 565 b 360 21 53 172 153 21 b 575 132 457 21 536 63 l 578 132 l 578 33 b 419 -140 578 -76 521 -140 b 272 -42 343 -140 289 -111 l 76 -42 b 394 -272 85 -187 228 -272 b 765 44 657 -272 765 -142 l 765 718 l 578 718 l 578 622 l 575 622 b 361 738 531 699 464 738 z m 250 385 b 408 589 250 503 307 589 b 578 369 547 589 578 469 b 410 169 578 257 517 169 b 250 385 296 169 250 268 z m 335 993 l 335 831 l 522 831 l 522 993 z "},"ģ":{"ha":849,"x_min":0,"x_max":0,"o":"m 361 738 b 53 382 160 738 53 565 b 360 21 53 172 153 21 b 575 132 457 21 536 63 l 578 132 l 578 33 b 419 -140 578 -76 521 -140 b 272 -42 343 -140 289 -111 l 76 -42 b 394 -272 85 -187 228 -272 b 765 44 657 -272 765 -142 l 765 718 l 578 718 l 578 622 l 575 622 b 361 738 531 699 464 738 z m 250 385 b 408 589 250 503 307 589 b 578 369 547 589 578 469 b 410 169 578 257 517 169 b 250 385 296 169 250 268 z m 514 1094 l 504 1094 b 326 960 364 1094 326 1050 l 326 863 l 528 863 l 528 992 l 435 992 b 514 1043 443 1022 465 1039 z "},"ĥ":{"ha":824,"x_min":0,"x_max":0,"o":"m 75 992 l 75 0 l 272 0 l 272 376 b 425 582 272 503 304 582 b 551 408 517 582 551 525 l 551 0 l 749 0 l 749 449 b 488 738 749 647 669 738 b 276 618 403 738 321 692 l 272 618 l 272 992 z m 307 1279 l 153 1082 l 306 1082 l 394 1194 l 481 1082 l 640 1082 l 488 1279 z "},"ħ":{"ha":838,"x_min":0,"x_max":0,"o":"m 89 992 l 89 894 l -24 894 l -24 789 l 89 789 l 89 0 l 286 0 l 286 378 b 439 582 286 511 325 582 b 565 408 531 582 565 524 l 565 0 l 763 0 l 763 447 b 501 738 763 650 682 738 b 290 618 414 738 335 690 l 286 618 l 286 789 l 506 789 l 506 894 l 286 894 l 286 992 z "},"ı":{"ha":358,"x_min":0,"x_max":0,"o":"m 81 718 l 81 0 l 278 0 l 278 718 z "},"ì":{"ha":358,"x_min":0,"x_max":0,"o":"m 81 718 l 81 0 l 278 0 l 278 718 z m -72 1015 l 142 818 l 279 818 l 146 1015 z "},"í":{"ha":358,"x_min":0,"x_max":0,"o":"m 81 718 l 81 0 l 278 0 l 278 718 z m 213 1015 l 79 818 l 217 818 l 431 1015 z "},"î":{"ha":358,"x_min":0,"x_max":0,"o":"m 81 718 l 81 0 l 278 0 l 278 718 z m 92 1015 l -62 818 l 90 818 l 179 931 l 265 818 l 425 818 l 272 1015 z "},"ĩ":{"ha":358,"x_min":0,"x_max":0,"o":"m 81 718 l 81 0 l 278 0 l 278 718 z m 88 1001 b -75 832 -6 1001 -64 919 l 13 832 b 75 890 24 872 44 890 b 172 865 104 890 131 881 b 279 843 215 850 246 843 b 435 1001 357 843 413 886 l 346 1001 b 286 953 336 967 319 953 b 192 978 261 953 235 961 b 88 1001 143 996 114 1001 z "},"ï":{"ha":358,"x_min":0,"x_max":0,"o":"m 81 718 l 81 0 l 278 0 l 278 718 z m -57 993 l -57 831 l 131 831 l 131 993 z m 229 993 l 229 831 l 417 831 l 417 993 z "},"ī":{"ha":358,"x_min":0,"x_max":0,"o":"m 81 718 l 81 0 l 278 0 l 278 718 z m -65 964 l -65 860 l 425 860 l 425 964 z "},"į":{"ha":358,"x_min":0,"x_max":0,"o":"m 81 992 l 81 829 l 278 829 l 278 992 z m 81 718 l 81 0 l 192 0 b 43 -186 96 -60 43 -118 b 185 -301 43 -257 99 -301 b 336 -215 256 -301 296 -271 l 279 -179 b 215 -218 258 -207 238 -218 b 171 -168 192 -218 171 -203 b 278 0 171 -115 201 -74 l 278 718 z "},"":{"ha":386,"x_min":0,"x_max":0,"o":"m 93 718 l 93 -25 b 17 -90 93 -68 74 -90 b -26 -85 0 -90 -15 -89 l -26 -247 b 39 -253 -4 -251 17 -253 b 290 -37 231 -253 290 -187 l 290 718 z "},"ĵ":{"ha":386,"x_min":0,"x_max":0,"o":"m 93 718 l 93 -25 b 17 -90 93 -68 74 -90 b -26 -85 0 -90 -15 -89 l -26 -247 b 39 -253 -4 -251 17 -253 b 290 -37 231 -253 290 -187 l 290 718 z m 99 1015 l -56 818 l 97 818 l 186 931 l 272 818 l 432 818 l 279 1015 z "},"ķ":{"ha":797,"x_min":0,"x_max":0,"o":"m 93 992 l 93 0 l 290 0 l 290 247 l 367 321 l 564 0 l 803 0 l 501 454 l 772 718 l 539 718 l 290 460 l 290 992 z m 326 -69 l 326 -199 l 419 -199 b 340 -250 410 -233 385 -246 l 340 -301 l 349 -301 b 528 -169 469 -301 528 -272 l 528 -69 z "},"ĺ":{"ha":358,"x_min":0,"x_max":0,"o":"m 81 992 l 81 0 l 278 0 l 278 992 z m 217 1279 l 83 1082 l 221 1082 l 435 1279 z "},"ľ":{"ha":358,"x_min":0,"x_max":0,"o":"m 81 992 l 81 0 l 278 0 l 278 992 z m 386 992 l 343 794 l 479 794 l 592 992 z "},"ļ":{"ha":358,"x_min":0,"x_max":0,"o":"m 81 992 l 81 0 l 278 0 l 278 992 z m 78 -69 l 78 -199 l 171 -199 b 92 -250 161 -233 136 -246 l 92 -301 l 100 -301 b 279 -169 221 -301 279 -272 l 279 -69 z "},"ł":{"ha":358,"x_min":0,"x_max":0,"o":"m 81 992 l 81 539 l -12 465 l -12 324 l 81 397 l 81 0 l 278 0 l 278 553 l 371 626 l 371 768 l 278 694 l 278 992 z "},"ŀ":{"ha":569,"x_min":0,"x_max":0,"o":"m 81 992 l 81 0 l 278 0 l 278 992 z m 363 625 l 363 463 l 550 463 l 550 625 z "},"ń":{"ha":824,"x_min":0,"x_max":0,"o":"m 488 738 b 267 618 394 738 314 694 l 263 618 l 263 718 l 75 718 l 75 0 l 272 0 l 272 374 b 425 582 272 501 303 582 b 551 407 517 582 551 525 l 551 0 l 749 0 l 749 447 b 488 738 749 649 669 738 z m 457 1015 l 324 818 l 461 818 l 675 1015 z "},"ň":{"ha":824,"x_min":0,"x_max":0,"o":"m 488 738 b 267 618 394 738 314 694 l 263 618 l 263 718 l 75 718 l 75 0 l 272 0 l 272 374 b 425 582 272 501 303 582 b 551 407 517 582 551 525 l 551 0 l 749 0 l 749 447 b 488 738 749 649 669 738 z m 168 1015 l 321 818 l 501 818 l 656 1015 l 503 1015 l 414 903 l 328 1015 z "},"ñ":{"ha":824,"x_min":0,"x_max":0,"o":"m 488 738 b 267 618 394 738 314 694 l 263 618 l 263 718 l 75 718 l 75 0 l 272 0 l 272 374 b 425 582 272 501 303 582 b 551 407 517 582 551 525 l 551 0 l 749 0 l 749 447 b 488 738 749 649 669 738 z m 318 1001 b 156 832 225 1001 167 919 l 243 832 b 306 890 254 872 275 890 b 403 865 335 890 361 881 b 510 843 446 850 476 843 b 665 1001 588 843 643 886 l 576 1001 b 517 953 567 967 550 953 b 422 978 492 953 465 961 b 318 1001 374 996 344 1001 z "},"ņ":{"ha":824,"x_min":0,"x_max":0,"o":"m 488 738 b 267 618 394 738 314 694 l 263 618 l 263 718 l 75 718 l 75 0 l 272 0 l 272 374 b 425 582 272 501 303 582 b 551 407 517 582 551 525 l 551 0 l 749 0 l 749 447 b 488 738 749 649 669 738 z m 307 -69 l 307 -199 l 400 -199 b 321 -250 390 -233 365 -246 l 321 -301 l 329 -301 b 508 -169 450 -301 508 -272 l 508 -69 z "},"ŉ":{"ha":1024,"x_min":0,"x_max":0,"o":"m 688 738 b 467 618 594 738 514 694 l 463 618 l 463 718 l 275 718 l 275 0 l 472 0 l 472 374 b 625 582 472 501 503 582 b 751 407 717 582 751 525 l 751 0 l 949 0 l 949 447 b 688 738 949 649 869 738 z m 28 992 l 28 778 l 119 778 l 119 775 b 28 638 119 706 94 660 l 28 546 b 225 771 143 561 225 654 l 225 992 z "},"ò":{"ha":849,"x_min":0,"x_max":0,"o":"m 424 738 b 53 358 199 738 53 588 b 424 -19 53 132 197 -19 b 796 358 644 -19 796 126 b 424 738 796 586 651 738 z m 250 358 b 422 589 250 506 313 589 b 599 358 558 589 599 475 b 424 129 599 217 540 129 b 250 358 311 129 250 213 z m 160 1015 l 374 818 l 511 818 l 378 1015 z "},"ó":{"ha":849,"x_min":0,"x_max":0,"o":"m 424 738 b 53 358 199 738 53 588 b 424 -19 53 132 197 -19 b 796 358 644 -19 796 126 b 424 738 796 586 651 738 z m 250 358 b 422 589 250 506 313 589 b 599 358 558 589 599 475 b 424 129 599 217 540 129 b 250 358 311 129 250 213 z m 472 1015 l 339 818 l 476 818 l 690 1015 z "},"ô":{"ha":849,"x_min":0,"x_max":0,"o":"m 424 738 b 53 358 199 738 53 588 b 424 -19 53 132 197 -19 b 796 358 644 -19 796 126 b 424 738 796 586 651 738 z m 250 358 b 422 589 250 506 313 589 b 599 358 558 589 599 475 b 424 129 599 217 540 129 b 250 358 311 129 250 213 z m 338 1015 l 183 818 l 336 818 l 425 931 l 511 818 l 671 818 l 518 1015 z "},"õ":{"ha":849,"x_min":0,"x_max":0,"o":"m 424 738 b 53 358 199 738 53 588 b 424 -19 53 132 197 -19 b 796 358 644 -19 796 126 b 424 738 796 586 651 738 z m 250 358 b 422 589 250 506 313 589 b 599 358 558 589 599 475 b 424 129 599 217 540 129 b 250 358 311 129 250 213 z m 333 1001 b 171 832 240 1001 182 919 l 258 832 b 321 890 269 872 290 890 b 418 865 350 890 376 881 b 525 843 461 850 492 843 b 681 1001 603 843 658 886 l 592 1001 b 532 953 582 967 565 953 b 438 978 507 953 481 961 b 333 1001 389 996 360 1001 z "},"ö":{"ha":849,"x_min":0,"x_max":0,"o":"m 424 738 b 53 358 199 738 53 588 b 424 -19 53 132 197 -19 b 796 358 644 -19 796 126 b 424 738 796 586 651 738 z m 250 358 b 422 589 250 506 313 589 b 599 358 558 589 599 475 b 424 129 599 217 540 129 b 250 358 311 129 250 213 z m 189 993 l 189 831 l 376 831 l 376 993 z m 475 993 l 475 831 l 663 831 l 663 993 z "},"ō":{"ha":849,"x_min":0,"x_max":0,"o":"m 424 738 b 53 358 199 738 53 588 b 424 -19 53 132 197 -19 b 796 358 644 -19 796 126 b 424 738 796 586 651 738 z m 250 358 b 422 589 250 506 313 589 b 599 358 558 589 599 475 b 424 129 599 217 540 129 b 250 358 311 129 250 213 z m 181 964 l 181 860 l 671 860 l 671 964 z "},"ŏ":{"ha":849,"x_min":0,"x_max":0,"o":"m 424 738 b 53 358 199 738 53 588 b 424 -19 53 132 197 -19 b 796 358 644 -19 796 126 b 424 738 796 586 651 738 z m 250 358 b 422 589 250 506 313 589 b 599 358 558 589 599 475 b 424 129 599 217 540 129 b 250 358 311 129 250 213 z m 194 1015 b 415 818 206 888 282 818 b 663 1015 563 818 646 886 l 575 1015 b 422 922 558 951 508 922 b 285 1015 351 922 293 957 z "},"ő":{"ha":849,"x_min":0,"x_max":0,"o":"m 424 738 b 53 358 199 738 53 588 b 424 -19 53 132 197 -19 b 796 358 644 -19 796 126 b 424 738 796 586 651 738 z m 250 358 b 422 589 250 506 313 589 b 599 358 558 589 599 475 b 424 129 599 217 540 129 b 250 358 311 129 250 213 z m 322 1015 l 196 818 l 333 818 l 540 1015 z m 610 1015 l 483 818 l 621 818 l 828 1015 z "},"ø":{"ha":849,"x_min":0,"x_max":0,"o":"m 650 671 b 424 738 588 715 511 738 b 53 358 199 738 53 588 b 144 96 53 250 83 163 l 61 1 l 113 -43 l 194 50 b 424 -19 257 4 333 -19 b 796 358 649 -19 796 129 b 700 626 796 467 763 560 l 775 711 l 724 756 z m 250 358 b 422 589 250 504 311 589 b 539 544 474 589 511 574 l 271 239 b 250 358 257 271 250 310 z m 576 485 b 599 358 593 443 599 400 b 424 129 599 217 540 129 b 306 176 374 129 335 144 z "},"œ":{"ha":1286,"x_min":0,"x_max":0,"o":"m 406 738 b 53 363 188 738 53 571 b 390 -19 53 157 169 -19 b 644 103 497 -19 597 22 b 904 -19 696 21 792 -19 b 1240 228 1068 -19 1194 72 l 1049 228 b 904 129 1022 163 976 129 b 733 311 799 129 733 196 l 1246 311 b 894 738 1244 582 1115 738 b 653 624 803 738 699 693 b 406 738 606 696 519 738 z m 250 356 b 406 589 250 493 303 589 b 561 361 508 589 561 511 b 403 129 561 208 506 129 b 250 356 292 129 250 244 z m 733 436 b 889 589 739 535 801 589 b 1049 436 992 589 1044 532 z "},"ŕ":{"ha":540,"x_min":0,"x_max":0,"o":"m 494 738 b 265 585 396 738 303 675 l 263 585 l 263 718 l 75 718 l 75 0 l 272 0 l 272 324 b 467 554 272 456 324 554 b 538 547 494 554 518 551 l 538 731 b 494 738 528 733 514 738 z m 351 1015 l 218 818 l 356 818 l 569 1015 z "},"ř":{"ha":540,"x_min":0,"x_max":0,"o":"m 494 738 b 265 585 396 738 303 675 l 263 585 l 263 718 l 75 718 l 75 0 l 272 0 l 272 324 b 467 554 272 456 324 554 b 538 547 494 554 518 551 l 538 731 b 494 738 528 733 514 738 z m 63 1015 l 215 818 l 396 818 l 550 1015 l 397 1015 l 308 903 l 222 1015 z "},"ŗ":{"ha":540,"x_min":0,"x_max":0,"o":"m 494 738 b 265 585 396 738 303 675 l 263 585 l 263 718 l 75 718 l 75 0 l 272 0 l 272 324 b 467 554 272 456 324 554 b 538 547 494 554 518 551 l 538 731 b 494 738 528 733 514 738 z m 75 -69 l 75 -199 l 168 -199 b 89 -250 158 -233 133 -246 l 89 -301 l 97 -301 b 276 -169 218 -301 276 -272 l 276 -69 z "},"ś":{"ha":746,"x_min":0,"x_max":0,"o":"m 369 738 b 57 507 168 738 57 660 b 292 314 57 404 125 349 b 508 204 447 282 508 257 b 379 113 508 142 446 113 b 228 233 297 113 228 153 l 40 233 b 378 -19 46 64 182 -19 b 706 231 546 -19 706 46 b 650 360 706 285 688 326 b 408 447 607 396 554 418 b 254 539 297 469 254 493 b 364 606 254 582 288 606 b 499 508 446 606 493 578 l 686 508 b 369 738 674 657 564 738 z m 422 1015 l 289 818 l 426 818 l 640 1015 z "},"ŝ":{"ha":746,"x_min":0,"x_max":0,"o":"m 369 738 b 57 507 168 738 57 660 b 292 314 57 404 125 349 b 508 204 447 282 508 257 b 379 113 508 142 446 113 b 228 233 297 113 228 153 l 40 233 b 378 -19 46 64 182 -19 b 706 231 546 -19 706 46 b 650 360 706 285 688 326 b 408 447 607 396 554 418 b 254 539 297 469 254 493 b 364 606 254 582 288 606 b 499 508 446 606 493 578 l 686 508 b 369 738 674 657 564 738 z m 288 1015 l 133 818 l 286 818 l 375 931 l 461 818 l 621 818 l 468 1015 z "},"š":{"ha":746,"x_min":0,"x_max":0,"o":"m 369 738 b 57 507 168 738 57 660 b 292 314 57 404 125 349 b 508 204 447 282 508 257 b 379 113 508 142 446 113 b 228 233 297 113 228 153 l 40 233 b 378 -19 46 64 182 -19 b 706 231 546 -19 706 46 b 650 360 706 285 688 326 b 408 447 607 396 554 418 b 254 539 297 469 254 493 b 364 606 254 582 288 606 b 499 508 446 606 493 578 l 686 508 b 369 738 674 657 564 738 z m 133 1015 l 286 818 l 467 818 l 621 1015 l 468 1015 l 379 903 l 293 1015 z "},"ş":{"ha":746,"x_min":0,"x_max":0,"o":"m 369 738 b 57 507 168 738 57 660 b 292 314 57 406 124 349 b 508 203 461 279 508 253 b 379 113 508 142 446 113 b 228 233 299 113 228 151 l 40 233 b 322 -17 46 86 143 0 l 253 -114 l 282 -147 b 335 -136 303 -139 318 -136 b 393 -182 364 -136 393 -150 b 331 -229 393 -211 371 -229 b 221 -204 296 -229 253 -218 l 192 -271 b 351 -301 254 -294 300 -301 b 526 -172 464 -301 526 -253 b 407 -65 526 -104 479 -65 b 351 -75 393 -65 368 -68 l 349 -72 l 388 -19 b 706 231 590 -15 706 75 b 651 358 706 283 688 326 b 428 443 613 392 564 415 b 254 539 317 465 254 485 b 364 606 254 582 288 606 b 499 508 446 606 493 578 l 686 508 b 369 738 674 660 560 738 z "},"ș":{"ha":746,"x_min":0,"x_max":0,"o":"m 369 738 b 57 507 168 738 57 660 b 292 314 57 404 125 349 b 508 204 447 282 508 257 b 379 113 508 142 446 113 b 228 233 297 113 228 153 l 40 233 b 378 -19 46 64 182 -19 b 706 231 546 -19 706 46 b 650 360 706 285 688 326 b 408 447 607 396 554 418 b 254 539 297 469 254 493 b 364 606 254 582 288 606 b 499 508 446 606 493 578 l 686 508 b 369 738 674 657 564 738 z m 267 -69 l 267 -199 l 360 -199 b 281 -250 350 -233 325 -246 l 281 -301 l 289 -301 b 468 -169 410 -301 468 -272 l 468 -69 z "},"ß":{"ha":849,"x_min":0,"x_max":0,"o":"m 404 1015 b 78 686 182 1015 78 900 l 78 0 l 275 0 l 275 717 b 400 853 275 793 314 853 b 532 729 488 853 532 810 b 386 606 532 644 461 606 b 356 608 376 606 367 607 l 356 478 b 404 481 369 479 388 481 b 574 313 513 481 574 419 b 411 143 574 215 506 143 b 356 150 392 143 374 144 l 356 -11 b 468 -19 396 -17 432 -19 b 771 304 646 -19 771 132 b 590 553 771 431 704 529 l 590 556 b 719 750 667 579 719 658 b 404 1015 719 922 583 1015 z "},"ť":{"ha":489,"x_min":0,"x_max":0,"o":"m 128 933 l 128 718 l 8 718 l 8 586 l 128 586 l 128 165 b 353 -8 128 38 201 -8 b 469 -1 392 -8 436 -7 l 469 153 b 408 147 453 149 431 147 b 325 231 342 147 325 164 l 325 586 l 469 586 l 469 718 l 325 718 l 325 933 z m 442 992 l 399 794 l 535 794 l 647 992 z "},"ţ":{"ha":489,"x_min":0,"x_max":0,"o":"m 128 933 l 128 718 l 8 718 l 8 586 l 128 586 l 128 165 b 353 -8 128 38 201 -8 b 469 -1 392 -8 436 -7 l 469 153 b 408 147 453 149 431 147 b 325 231 342 147 325 164 l 325 586 l 469 586 l 469 718 l 325 718 l 325 933 z m 196 -69 l 196 -199 l 289 -199 b 210 -250 279 -233 254 -246 l 210 -301 l 218 -301 b 397 -169 339 -301 397 -272 l 397 -69 z "},"ț":{"ha":489,"x_min":0,"x_max":0,"o":"m 128 933 l 128 718 l 8 718 l 8 586 l 128 586 l 128 165 b 353 -8 128 38 201 -8 b 469 -1 392 -8 436 -7 l 469 153 b 408 147 453 149 431 147 b 325 231 342 147 325 164 l 325 586 l 469 586 l 469 718 l 325 718 l 325 933 z m 196 -69 l 196 -199 l 289 -199 b 210 -250 279 -233 254 -246 l 210 -301 l 218 -301 b 397 -169 339 -301 397 -272 l 397 -69 z "},"ŧ":{"ha":489,"x_min":0,"x_max":0,"o":"m 128 933 l 128 718 l 8 718 l 8 586 l 128 586 l 128 474 l 19 474 l 19 368 l 128 368 l 128 165 b 356 -8 128 28 214 -8 b 469 -1 394 -8 436 -7 l 469 153 b 407 147 453 149 429 147 b 325 232 338 147 325 168 l 325 368 l 453 368 l 453 474 l 325 474 l 325 586 l 469 586 l 469 718 l 325 718 l 325 933 z "},"þ":{"ha":849,"x_min":0,"x_max":0,"o":"m 75 992 l 75 -253 l 272 -253 l 272 89 l 275 89 b 490 -19 322 21 399 -19 b 806 351 700 -19 806 158 b 481 738 806 565 696 738 b 275 626 393 738 319 699 l 272 626 l 272 992 z m 265 357 b 435 589 265 483 314 589 b 608 357 575 589 608 453 b 438 129 608 224 556 129 b 265 357 311 129 265 238 z "},"ù":{"ha":824,"x_min":0,"x_max":0,"o":"m 75 718 l 75 272 b 336 -19 75 75 149 -19 b 557 100 424 -19 507 19 l 561 100 l 561 0 l 749 0 l 749 718 l 551 718 l 551 340 b 399 136 551 199 507 136 b 272 311 301 136 272 201 l 272 718 z m 149 1015 l 363 818 l 500 818 l 367 1015 z "},"ú":{"ha":824,"x_min":0,"x_max":0,"o":"m 75 718 l 75 272 b 336 -19 75 75 149 -19 b 557 100 424 -19 507 19 l 561 100 l 561 0 l 749 0 l 749 718 l 551 718 l 551 340 b 399 136 551 199 507 136 b 272 311 301 136 272 201 l 272 718 z m 461 1015 l 328 818 l 465 818 l 679 1015 z "},"û":{"ha":824,"x_min":0,"x_max":0,"o":"m 75 718 l 75 272 b 336 -19 75 75 149 -19 b 557 100 424 -19 507 19 l 561 100 l 561 0 l 749 0 l 749 718 l 551 718 l 551 340 b 399 136 551 199 507 136 b 272 311 301 136 272 201 l 272 718 z m 326 1015 l 172 818 l 325 818 l 414 931 l 500 818 l 660 818 l 507 1015 z "},"ũ":{"ha":824,"x_min":0,"x_max":0,"o":"m 75 718 l 75 272 b 336 -19 75 75 149 -19 b 557 100 424 -19 507 19 l 561 100 l 561 0 l 749 0 l 749 718 l 551 718 l 551 340 b 399 136 551 199 507 136 b 272 311 301 136 272 201 l 272 718 z m 322 1001 b 160 832 229 1001 171 919 l 247 832 b 310 890 258 872 279 890 b 407 865 339 890 365 881 b 514 843 450 850 481 843 b 669 1001 592 843 647 886 l 581 1001 b 521 953 571 967 554 953 b 426 978 496 953 469 961 b 322 1001 378 996 349 1001 z "},"ü":{"ha":824,"x_min":0,"x_max":0,"o":"m 75 718 l 75 272 b 336 -19 75 75 149 -19 b 557 100 424 -19 507 19 l 561 100 l 561 0 l 749 0 l 749 718 l 551 718 l 551 340 b 399 136 551 199 507 136 b 272 311 301 136 272 201 l 272 718 z m 178 993 l 178 831 l 365 831 l 365 993 z m 464 993 l 464 831 l 651 831 l 651 993 z "},"ū":{"ha":824,"x_min":0,"x_max":0,"o":"m 75 718 l 75 272 b 336 -19 75 75 149 -19 b 557 100 424 -19 507 19 l 561 100 l 561 0 l 749 0 l 749 718 l 551 718 l 551 340 b 399 136 551 199 507 136 b 272 311 301 136 272 201 l 272 718 z m 171 964 l 171 860 l 661 860 l 661 964 z "},"ŭ":{"ha":824,"x_min":0,"x_max":0,"o":"m 75 718 l 75 272 b 336 -19 75 75 149 -19 b 557 100 424 -19 507 19 l 561 100 l 561 0 l 749 0 l 749 718 l 551 718 l 551 340 b 399 136 551 199 507 136 b 272 311 301 136 272 201 l 272 718 z m 183 1015 b 404 818 194 888 271 818 b 651 1015 551 818 635 886 l 564 1015 b 411 922 547 951 497 922 b 274 1015 340 922 282 957 z "},"ů":{"ha":824,"x_min":0,"x_max":0,"o":"m 75 718 l 75 272 b 336 -19 75 75 149 -19 b 557 100 424 -19 507 19 l 561 100 l 561 0 l 749 0 l 749 718 l 551 718 l 551 340 b 399 136 551 199 507 136 b 272 311 301 136 272 201 l 272 718 z m 415 1117 b 244 950 318 1117 244 1044 b 414 783 244 857 313 783 b 585 950 510 783 585 854 b 415 1117 585 1044 515 1117 z m 326 950 b 414 1043 326 1008 365 1043 b 503 950 474 1043 503 1000 b 414 857 503 894 467 857 b 326 950 357 857 326 899 z "},"ű":{"ha":824,"x_min":0,"x_max":0,"o":"m 75 718 l 75 272 b 336 -19 75 75 149 -19 b 557 100 424 -19 507 19 l 561 100 l 561 0 l 749 0 l 749 718 l 551 718 l 551 340 b 399 136 551 199 507 136 b 272 311 301 136 272 201 l 272 718 z m 311 1015 l 185 818 l 322 818 l 529 1015 z m 599 1015 l 472 818 l 610 818 l 817 1015 z "},"ų":{"ha":824,"x_min":0,"x_max":0,"o":"m 75 718 l 75 271 b 336 -19 75 65 158 -19 b 557 100 424 -19 508 19 l 561 100 l 561 0 b 435 -185 472 -71 435 -122 b 586 -301 435 -256 496 -301 b 758 -210 667 -301 717 -272 l 696 -174 b 619 -218 672 -201 649 -218 b 567 -164 590 -218 567 -199 b 658 0 567 -110 594 -65 l 749 0 l 749 718 l 551 718 l 551 339 b 399 136 551 183 494 136 b 272 313 306 136 272 194 l 272 718 z "},"ŵ":{"ha":1131,"x_min":0,"x_max":0,"o":"m 8 718 l 236 0 l 440 0 l 563 482 l 565 482 l 693 0 l 896 0 l 1122 718 l 919 718 l 788 232 l 785 232 l 663 718 l 471 718 l 351 231 l 349 231 l 217 718 z m 479 1015 l 325 818 l 478 818 l 567 931 l 653 818 l 813 818 l 660 1015 z "},"ý":{"ha":721,"x_min":0,"x_max":0,"o":"m -8 718 l 244 44 b 253 0 251 25 253 13 b 165 -90 253 -51 221 -90 b 61 -83 138 -90 103 -89 l 61 -246 b 185 -253 103 -250 138 -253 b 429 -90 318 -253 388 -203 l 729 718 l 525 718 l 368 226 l 365 226 l 203 718 z m 414 1015 l 281 818 l 418 818 l 632 1015 z "},"ŷ":{"ha":721,"x_min":0,"x_max":0,"o":"m -8 718 l 244 44 b 253 0 251 25 253 13 b 165 -90 253 -51 221 -90 b 61 -83 138 -90 103 -89 l 61 -246 b 185 -253 103 -250 138 -253 b 429 -90 318 -253 388 -203 l 729 718 l 525 718 l 368 226 l 365 226 l 203 718 z m 281 1015 l 126 818 l 279 818 l 368 931 l 454 818 l 614 818 l 461 1015 z "},"ÿ":{"ha":721,"x_min":0,"x_max":0,"o":"m -8 718 l 244 44 b 253 0 251 25 253 13 b 165 -90 253 -51 221 -90 b 61 -83 138 -90 103 -89 l 61 -246 b 185 -253 103 -250 138 -253 b 429 -90 318 -253 388 -203 l 729 718 l 525 718 l 368 226 l 365 226 l 203 718 z m 131 993 l 131 831 l 318 831 l 318 993 z m 417 993 l 417 831 l 604 831 l 604 993 z "},"ź":{"ha":721,"x_min":0,"x_max":0,"o":"m 58 718 l 58 569 l 404 569 l 31 149 l 31 0 l 690 0 l 690 149 l 290 149 l 664 569 l 664 718 z m 408 1015 l 275 818 l 413 818 l 626 1015 z "},"ž":{"ha":721,"x_min":0,"x_max":0,"o":"m 58 718 l 58 569 l 404 569 l 31 149 l 31 0 l 690 0 l 690 149 l 290 149 l 664 569 l 664 718 z m 119 1015 l 272 818 l 453 818 l 607 1015 l 454 1015 l 365 903 l 279 1015 z "},"ż":{"ha":721,"x_min":0,"x_max":0,"o":"m 58 718 l 58 569 l 404 569 l 31 149 l 31 0 l 690 0 l 690 149 l 290 149 l 664 569 l 664 718 z m 267 993 l 267 831 l 454 831 l 454 993 z "},"Ĳ":{"ha":1174,"x_min":0,"x_max":0,"o":"m 96 992 l 96 0 l 314 0 l 314 992 z m 860 992 l 860 314 b 744 160 860 239 853 160 b 618 321 661 160 618 204 l 618 369 l 421 369 l 421 281 b 750 -24 421 96 549 -24 b 1078 311 968 -24 1078 94 l 1078 992 z "},"ﬁ":{"ha":821,"x_min":0,"x_max":0,"o":"m 315 0 l 315 586 l 451 586 l 451 718 l 315 718 l 315 760 b 392 843 315 821 335 843 b 463 839 413 843 438 842 l 463 986 b 358 992 404 990 372 992 b 118 771 217 992 118 921 l 118 718 l 0 718 l 0 586 l 118 586 l 118 0 z m 543 992 l 543 829 l 740 829 l 740 992 z m 543 718 l 543 0 l 740 0 l 740 718 z "},"ﬂ":{"ha":821,"x_min":0,"x_max":0,"o":"m 315 0 l 315 586 l 451 586 l 451 718 l 315 718 l 315 760 b 392 843 315 821 335 843 b 463 839 413 843 438 842 l 463 986 b 358 992 404 990 372 992 b 118 771 217 992 118 921 l 118 718 l 0 718 l 0 586 l 118 586 l 118 0 z m 543 992 l 543 0 l 740 0 l 740 992 z "},"ĳ":{"ha":728,"x_min":0,"x_max":0,"o":"m 81 992 l 81 829 l 278 829 l 278 992 z m 81 718 l 81 0 l 278 0 l 278 718 z m 435 992 l 435 829 l 632 829 l 632 992 z m 435 718 l 435 -25 b 360 -90 435 -64 419 -90 b 315 -85 343 -90 326 -89 l 315 -247 b 381 -253 338 -251 358 -253 b 632 -40 567 -253 632 -192 l 632 718 z "},"":{"ha":360,"x_min":0,"x_max":0,"o":"m -67 1279 l 147 1082 l 285 1082 l 151 1279 z "},"´":{"ha":360,"x_min":0,"x_max":0,"o":"m 208 1015 l 75 818 l 213 818 l 426 1015 z "},"":{"ha":360,"x_min":0,"x_max":0,"o":"m 210 1279 l 76 1082 l 214 1082 l 428 1279 z "},"ˆ":{"ha":360,"x_min":0,"x_max":0,"o":"m 90 1015 l -64 818 l 89 818 l 178 931 l 264 818 l 424 818 l 271 1015 z "},"":{"ha":360,"x_min":0,"x_max":0,"o":"m 90 1279 l -64 1082 l 89 1082 l 178 1194 l 264 1082 l 424 1082 l 271 1279 z "},"ˇ":{"ha":360,"x_min":0,"x_max":0,"o":"m -64 1015 l 89 818 l 269 818 l 424 1015 l 271 1015 l 182 903 l 96 1015 z "},"":{"ha":360,"x_min":0,"x_max":0,"o":"m -64 1279 l 89 1082 l 269 1082 l 424 1279 l 271 1279 l 182 1167 l 96 1279 z "},"":{"ha":360,"x_min":0,"x_max":0,"o":"m 164 992 l 121 794 l 257 794 l 369 992 z "},"˜":{"ha":360,"x_min":0,"x_max":0,"o":"m 88 1001 b -75 832 -6 1001 -64 919 l 13 832 b 75 890 24 872 44 890 b 172 865 104 890 131 881 b 279 843 215 850 246 843 b 435 1001 357 843 413 886 l 346 1001 b 286 953 336 967 319 953 b 192 978 261 953 235 961 b 88 1001 143 996 114 1001 z "},"":{"ha":360,"x_min":0,"x_max":0,"o":"m 88 1265 b -75 1096 -3 1265 -64 1186 l 13 1096 b 75 1154 24 1138 46 1154 b 172 1129 104 1154 131 1144 b 279 1107 211 1115 243 1107 b 435 1265 360 1107 413 1153 l 346 1265 b 286 1217 336 1229 318 1217 b 199 1239 265 1217 243 1222 b 88 1265 157 1254 125 1265 z "},"¨":{"ha":360,"x_min":0,"x_max":0,"o":"m -57 993 l -57 831 l 131 831 l 131 993 z m 229 993 l 229 831 l 417 831 l 417 993 z "},"":{"ha":360,"x_min":0,"x_max":0,"o":"m -57 1257 l -57 1094 l 131 1094 l 131 1257 z m 229 1257 l 229 1094 l 417 1094 l 417 1257 z "},"¯":{"ha":360,"x_min":0,"x_max":0,"o":"m -65 964 l -65 860 l 425 860 l 425 964 z "},"":{"ha":360,"x_min":0,"x_max":0,"o":"m -65 1228 l -65 1124 l 425 1124 l 425 1228 z "},"ˉ":{"ha":360,"x_min":0,"x_max":0,"o":"m -65 964 l -65 860 l 425 860 l 425 964 z "},"˘":{"ha":360,"x_min":0,"x_max":0,"o":"m -54 1015 b 167 818 -43 888 33 818 b 414 1015 314 818 397 886 l 326 1015 b 174 922 310 951 260 922 b 36 1015 103 922 44 957 z "},"":{"ha":360,"x_min":0,"x_max":0,"o":"m -54 1279 b 167 1082 -43 1153 32 1082 b 414 1279 315 1082 397 1151 l 326 1279 b 174 1186 311 1217 260 1186 b 36 1279 110 1186 46 1215 z "},"˚":{"ha":360,"x_min":0,"x_max":0,"o":"m 181 1117 b 10 950 83 1117 10 1044 b 179 783 10 857 78 783 b 350 950 275 783 350 854 b 181 1117 350 1044 281 1117 z m 92 950 b 179 1043 92 1008 131 1043 b 268 950 239 1043 268 1000 b 179 857 268 894 232 857 b 92 950 122 857 92 899 z "},"":{"ha":360,"x_min":0,"x_max":0,"o":"m 181 1351 b 18 1193 90 1351 18 1282 b 181 1035 18 1101 90 1035 b 343 1193 272 1035 343 1106 b 181 1351 343 1281 275 1351 z m 96 1193 b 179 1281 96 1249 133 1281 b 265 1193 239 1281 265 1236 b 181 1106 265 1142 232 1106 b 96 1193 131 1106 96 1142 z "},"˝":{"ha":360,"x_min":0,"x_max":0,"o":"m 49 1015 l -78 818 l 60 818 l 267 1015 z m 336 1015 l 210 818 l 347 818 l 554 1015 z "},"":{"ha":360,"x_min":0,"x_max":0,"o":"m 49 1279 l -78 1082 l 60 1082 l 267 1279 z m 336 1279 l 210 1082 l 347 1082 l 554 1279 z "},"˙":{"ha":360,"x_min":0,"x_max":0,"o":"m 86 993 l 86 831 l 274 831 l 274 993 z "},"":{"ha":360,"x_min":0,"x_max":0,"o":"m 86 1257 l 86 1094 l 274 1094 l 274 1257 z "},"¸":{"ha":360,"x_min":0,"x_max":0,"o":"m 78 -114 l 107 -147 b 160 -136 128 -139 143 -136 b 218 -182 193 -136 218 -153 b 156 -229 218 -210 197 -229 b 46 -204 121 -229 78 -218 l 17 -271 b 176 -301 54 -285 103 -301 b 351 -172 292 -301 351 -251 b 232 -65 351 -103 303 -65 b 176 -75 217 -65 193 -68 l 174 -72 l 228 0 l 160 0 z "},"˛":{"ha":360,"x_min":0,"x_max":0,"o":"m 161 0 b 15 -186 58 -69 15 -124 b 167 -301 15 -256 75 -301 b 339 -210 244 -301 296 -275 l 276 -174 b 200 -218 249 -207 225 -218 b 149 -164 176 -218 149 -203 b 250 0 149 -107 194 -61 z "},"":{"ha":386,"x_min":0,"x_max":0,"o":"m 104 -69 l 104 -199 l 197 -199 b 118 -250 188 -233 163 -246 l 118 -301 l 126 -301 b 306 -169 247 -301 306 -272 l 306 -69 z "},"":{"ha":386,"x_min":0,"x_max":0,"o":"m 283 1094 l 274 1094 b 96 960 133 1094 96 1050 l 96 863 l 297 863 l 297 992 l 204 992 b 283 1043 213 1022 235 1039 z "},"…":{"ha":1389,"x_min":0,"x_max":0,"o":"m 122 214 l 122 0 l 340 0 l 340 214 z m 585 214 l 585 0 l 803 0 l 803 214 z m 1047 214 l 1047 0 l 1265 0 l 1265 214 z "},"­":{"ha":565,"x_min":0,"x_max":0,"o":"m 74 464 l 74 294 l 492 294 l 492 464 z "},"¡":{"ha":386,"x_min":0,"x_max":0,"o":"m 85 738 l 85 524 l 303 524 l 303 738 z m 144 440 l 90 13 l 90 -254 l 296 -254 l 296 13 l 243 440 z "},"¿":{"ha":772,"x_min":0,"x_max":0,"o":"m 286 738 l 286 524 l 504 524 l 504 738 z m 297 446 l 297 406 b 275 331 297 379 289 353 b 165 233 254 299 235 283 b 44 -3 78 171 44 101 b 389 -272 44 -115 135 -272 b 725 71 583 -272 719 -137 l 521 71 b 381 -110 521 -32 474 -110 b 263 17 315 -110 263 -78 b 354 157 263 74 285 104 b 485 411 442 224 485 292 l 485 446 z "},"‘":{"ha":386,"x_min":0,"x_max":0,"o":"m 292 992 b 94 767 178 976 94 885 l 94 546 l 292 546 l 292 760 l 200 760 l 200 763 b 292 900 200 836 228 879 z "},"’":{"ha":386,"x_min":0,"x_max":0,"o":"m 94 992 l 94 778 l 186 778 l 186 775 b 94 638 186 706 161 660 l 94 546 b 292 771 210 561 292 654 l 292 992 z "},"“":{"ha":643,"x_min":0,"x_max":0,"o":"m 272 992 b 75 768 156 976 75 881 l 75 546 l 272 546 l 272 760 l 181 760 b 272 900 181 838 208 878 z m 568 992 b 371 768 451 976 371 881 l 371 546 l 568 546 l 568 760 l 476 760 b 568 900 476 833 501 878 z "},"”":{"ha":643,"x_min":0,"x_max":0,"o":"m 75 992 l 75 778 l 167 778 b 75 638 167 697 136 658 l 75 546 b 272 768 192 561 272 657 l 272 992 z m 371 992 l 371 778 l 463 778 b 371 638 463 699 433 658 l 371 546 b 568 771 489 563 568 656 l 568 992 z "},"‚":{"ha":386,"x_min":0,"x_max":0,"o":"m 94 214 l 94 0 l 186 0 l 186 -3 b 94 -140 186 -78 157 -119 l 94 -232 b 292 -8 208 -217 292 -124 l 292 214 z "},"„":{"ha":643,"x_min":0,"x_max":0,"o":"m 75 214 l 75 0 l 167 0 b 75 -140 167 -82 135 -119 l 75 -232 b 272 -10 196 -215 272 -117 l 272 214 z m 371 214 l 371 0 l 463 0 b 371 -140 463 -82 431 -121 l 371 -232 b 568 -8 492 -215 568 -118 l 568 214 z "},"‹":{"ha":335,"x_min":0,"x_max":0,"o":"m 58 472 l 58 285 l 276 111 l 276 278 l 151 378 l 276 476 l 276 643 z "},"›":{"ha":335,"x_min":0,"x_max":0,"o":"m 58 643 l 58 476 l 183 378 l 58 278 l 58 111 l 276 285 l 276 472 z "},"«":{"ha":617,"x_min":0,"x_max":0,"o":"m 58 472 l 58 285 l 276 111 l 276 278 l 151 378 l 276 476 l 276 643 z m 340 472 l 340 285 l 558 111 l 558 278 l 433 378 l 558 476 l 558 643 z "},"»":{"ha":617,"x_min":0,"x_max":0,"o":"m 58 643 l 58 476 l 183 378 l 58 278 l 58 111 l 276 285 l 276 472 z m 340 476 l 465 378 l 340 278 l 340 111 l 558 285 l 558 472 l 340 643 z "},"–":{"ha":694,"x_min":0,"x_max":0,"o":"m 0 464 l 0 294 l 694 294 l 694 464 z "},"—":{"ha":1389,"x_min":0,"x_max":0,"o":"m 181 464 l 181 294 l 1208 294 l 1208 464 z "},"•":{"ha":696,"x_min":0,"x_max":0,"o":"m 347 743 b 100 496 211 743 100 635 b 347 247 100 357 211 247 b 596 496 486 247 596 360 b 347 743 596 636 482 743 z "},"·":{"ha":386,"x_min":0,"x_max":0,"o":"m 194 517 b 76 399 132 517 76 465 b 196 282 76 333 132 282 b 311 399 257 282 311 339 b 194 517 311 463 258 517 z "},"∙":{"ha":386,"x_min":0,"x_max":0,"o":"m 194 517 b 76 399 132 517 76 465 b 196 282 76 333 132 282 b 311 399 257 282 311 339 b 194 517 311 463 258 517 z "},"†":{"ha":772,"x_min":0,"x_max":0,"o":"m 292 992 l 292 718 l 33 718 l 33 556 l 292 556 l 292 -231 l 479 -231 l 479 556 l 739 556 l 739 718 l 479 718 l 479 992 z "},"‡":{"ha":772,"x_min":0,"x_max":0,"o":"m 292 992 l 292 718 l 33 718 l 33 556 l 292 556 l 292 200 l 33 200 l 33 38 l 292 38 l 292 -231 l 479 -231 l 479 38 l 739 38 l 739 200 l 479 200 l 479 556 l 739 556 l 739 718 l 479 718 l 479 992 z "},"§":{"ha":772,"x_min":0,"x_max":0,"o":"m 393 1015 b 103 775 254 1015 103 933 b 163 635 103 721 119 682 b 14 433 64 600 14 528 b 269 163 14 332 74 250 b 454 64 392 108 424 89 b 493 -10 481 42 493 17 b 390 -104 493 -89 428 -104 b 254 17 307 -104 258 -65 l 82 17 b 394 -253 82 -160 201 -253 b 690 -19 536 -253 690 -174 b 614 144 690 53 664 107 b 758 347 699 175 758 251 b 697 493 758 403 739 449 b 463 632 664 528 613 565 b 290 779 326 693 290 733 b 396 867 290 831 343 867 b 514 747 467 867 514 818 l 686 747 b 393 1015 686 918 557 1015 z m 186 449 b 260 542 186 494 224 542 b 282 535 268 542 275 539 l 524 399 b 586 311 579 368 586 335 b 522 235 586 281 560 235 b 463 254 503 235 488 240 l 233 379 b 186 449 213 390 186 408 z "},"¶":{"ha":861,"x_min":0,"x_max":0,"o":"m 743 992 l 333 992 b 3 739 115 992 3 911 b 307 496 3 592 108 497 l 307 -231 l 449 -231 l 449 881 l 601 881 l 601 -231 l 743 -231 z "},"¦":{"ha":310,"x_min":0,"x_max":0,"o":"m 81 918 l 81 571 l 229 571 l 229 918 z m 81 224 l 81 -124 l 229 -124 l 229 224 z "},"©":{"ha":1111,"x_min":0,"x_max":0,"o":"m 556 1015 b 22 496 274 1015 22 813 b 556 -24 22 179 274 -24 b 1089 496 839 -24 1089 182 b 556 1015 1089 814 838 1015 z m 164 496 b 554 904 164 733 338 904 b 947 496 771 904 947 735 b 556 88 947 256 768 88 b 164 496 333 88 164 263 z m 572 810 b 276 499 393 810 276 682 b 575 190 276 324 396 190 b 828 410 700 190 806 272 l 715 410 b 575 301 704 339 649 301 b 410 501 475 301 410 393 b 572 699 410 618 468 699 b 715 594 643 699 700 661 l 824 594 b 572 810 807 728 707 810 z "},"®":{"ha":1111,"x_min":0,"x_max":0,"o":"m 556 1015 b 22 497 275 1015 22 813 b 556 -24 22 182 272 -24 b 1089 497 840 -24 1089 182 b 556 1015 1089 811 839 1015 z m 164 497 b 554 904 164 735 339 904 b 947 497 781 904 947 725 b 556 88 947 258 771 88 b 164 497 332 88 164 265 z m 349 789 l 349 207 l 464 207 l 464 456 l 536 456 l 678 207 l 799 207 l 643 461 b 796 617 744 469 796 525 b 571 789 796 736 722 789 z m 464 546 l 464 699 l 563 699 b 681 626 642 699 681 672 b 574 546 681 571 654 546 z "},"™":{"ha":1389,"x_min":0,"x_max":0,"o":"m 86 992 l 86 881 l 249 881 l 249 419 l 390 419 l 390 881 l 553 881 l 553 992 z m 626 992 l 626 419 l 760 419 l 760 825 l 763 825 l 910 419 l 1006 419 l 1153 825 l 1156 825 l 1156 419 l 1289 419 l 1289 992 l 1101 992 l 958 615 l 815 992 z "},"¤":{"ha":772,"x_min":0,"x_max":0,"o":"m 579 768 b 389 831 529 811 451 831 b 186 767 313 831 232 806 l 107 844 l 28 765 l 107 685 b 40 485 61 639 40 563 b 107 288 40 408 63 340 l 28 207 l 106 129 l 183 210 b 388 142 233 164 308 142 b 586 211 471 142 543 169 l 665 131 l 742 207 l 665 285 b 729 488 703 329 729 400 b 667 686 729 560 710 639 l 744 763 l 660 847 z m 213 485 b 388 682 213 597 281 682 b 557 488 506 682 557 581 b 388 290 557 379 496 290 b 213 485 275 290 213 381 z "},"€":{"ha":772,"x_min":0,"x_max":0,"o":"m 547 1003 b 135 632 301 1003 171 822 l 64 632 l 21 532 l 122 532 b 121 492 121 515 121 500 l 121 474 l 65 474 l 22 374 l 129 374 b 536 -24 165 143 296 -24 b 751 32 619 -24 692 -4 l 753 242 b 539 154 679 183 607 154 b 333 374 432 154 363 228 l 575 374 l 618 474 l 322 474 b 324 532 322 486 324 532 l 635 532 l 678 632 l 339 632 b 533 822 371 758 436 822 b 715 760 589 822 650 801 l 800 933 b 547 1003 710 979 626 1003 z "},"¢":{"ha":772,"x_min":0,"x_max":0,"o":"m 361 738 b 29 347 147 719 29 560 b 361 -19 29 149 163 -8 l 361 -160 l 443 -160 l 443 -19 b 757 282 619 -3 742 108 l 564 282 b 443 129 564 213 513 142 l 443 589 b 561 464 507 583 556 529 l 754 464 b 443 738 746 639 588 738 l 443 856 l 361 856 z m 226 367 b 361 588 226 482 275 565 l 361 129 b 226 367 275 157 226 242 z "},"£":{"ha":772,"x_min":0,"x_max":0,"o":"m 410 1015 b 56 739 190 1015 56 897 b 118 547 56 665 83 592 l 29 547 l 29 429 l 167 429 b 193 336 188 385 193 361 b 36 106 193 256 140 172 l 122 -24 b 282 29 157 4 206 29 b 415 3 336 29 372 19 b 569 -24 458 -14 500 -24 b 788 65 657 -24 731 10 l 704 206 b 583 146 665 164 635 146 b 472 163 536 146 497 157 b 364 178 411 176 383 178 b 269 146 326 178 304 167 l 267 149 b 381 344 340 207 381 265 b 369 429 381 383 378 404 l 515 429 l 515 547 l 331 547 b 274 724 285 632 274 664 b 410 853 274 806 331 853 b 561 668 506 853 556 793 l 749 668 b 410 1015 747 896 622 1015 z "},"ƒ":{"ha":772,"x_min":0,"x_max":0,"o":"m 606 1015 b 319 776 432 1015 354 960 l 286 600 l 160 600 l 135 468 l 263 468 l 175 11 b 82 -87 167 -32 158 -87 b 19 -83 51 -87 38 -86 l -7 -232 b 93 -236 18 -235 43 -236 b 386 38 299 -236 351 -153 l 464 468 l 603 468 l 625 600 l 489 600 l 524 781 b 632 867 536 847 563 867 b 685 857 653 867 669 864 l 710 1006 b 606 1015 678 1013 643 1015 z "},"¥":{"ha":772,"x_min":0,"x_max":0,"o":"m -12 992 l 201 560 l 69 560 l 69 428 l 268 428 l 288 388 l 288 324 l 69 324 l 69 192 l 288 192 l 288 0 l 499 0 l 499 192 l 718 192 l 718 324 l 499 324 l 499 388 l 519 428 l 718 428 l 718 560 l 586 560 l 801 992 l 576 992 l 397 560 l 214 992 z "},"ª":{"ha":478,"x_min":0,"x_max":0,"o":"m 244 992 b 28 840 121 992 44 949 l 169 840 b 239 901 172 876 199 901 b 321 847 288 901 321 893 b 235 801 321 813 283 807 b 14 660 136 790 14 786 b 169 521 14 569 72 521 b 319 576 232 521 286 540 b 329 533 321 561 325 547 l 469 533 b 453 633 457 557 453 600 l 453 867 b 244 992 453 950 386 992 z m 156 663 b 253 722 156 697 188 713 b 319 743 294 728 310 735 l 319 711 b 219 611 319 643 285 611 b 156 663 179 611 156 631 z "},"º":{"ha":510,"x_min":0,"x_max":0,"o":"m 254 992 b 17 756 110 992 17 901 b 254 521 17 610 110 521 b 493 756 400 521 493 611 b 254 992 493 901 399 992 z m 165 756 b 254 888 165 818 192 888 b 344 756 318 888 344 818 b 254 625 344 697 319 625 b 165 756 193 625 165 692 z "},"¹":{"ha":542,"x_min":0,"x_max":0,"o":"m 257 1139 b 108 1024 247 1068 207 1024 l 79 1024 l 79 924 l 232 924 l 232 551 l 374 551 l 374 1139 z "},"²":{"ha":542,"x_min":0,"x_max":0,"o":"m 285 1151 b 56 939 144 1151 56 1069 l 194 939 b 283 1044 197 1010 226 1044 b 356 975 328 1044 356 1014 b 286 875 356 932 336 906 l 182 810 b 46 553 81 746 46 681 l 46 551 l 492 551 l 492 663 l 206 663 b 269 733 208 683 232 710 b 465 876 346 782 429 824 b 496 975 485 903 496 935 b 285 1151 496 1085 418 1151 z "},"³":{"ha":542,"x_min":0,"x_max":0,"o":"m 275 1151 b 51 954 142 1151 57 1081 l 183 954 b 269 1046 183 1015 211 1046 b 350 978 319 1046 350 1021 b 261 910 350 935 314 910 l 225 910 l 225 814 l 264 814 b 371 731 339 814 371 789 b 269 649 371 679 329 649 b 171 732 207 649 178 679 l 38 732 b 265 539 38 618 117 539 b 501 725 396 539 501 610 b 386 872 501 807 460 858 b 478 994 444 893 478 938 b 275 1151 478 1093 396 1151 z "},"⁄":{"ha":232,"x_min":0,"x_max":0,"o":"m 344 1003 l -231 -31 l -110 -31 l 463 1003 z "},"∕":{"ha":232,"x_min":0,"x_max":0,"o":"m 344 1003 l -231 -31 l -110 -31 l 463 1003 z "},"¼":{"ha":1158,"x_min":0,"x_max":0,"o":"m 892 588 l 624 232 l 624 115 l 885 115 l 885 0 l 1018 0 l 1018 115 l 1097 115 l 1097 221 l 1018 221 l 1018 588 z m 885 435 l 885 221 l 728 221 z m 226 976 b 78 861 217 906 176 861 l 49 861 l 49 761 l 201 761 l 201 389 l 343 389 l 343 976 z m 783 1003 l 208 -31 l 329 -31 l 901 1003 z "},"½":{"ha":1158,"x_min":0,"x_max":0,"o":"m 226 976 b 78 861 217 906 176 861 l 49 861 l 49 761 l 201 761 l 201 389 l 343 389 l 343 976 z m 756 1003 l 181 -31 l 301 -31 l 874 1003 z m 892 600 b 663 388 751 600 663 518 l 801 388 b 890 493 804 458 833 493 b 963 424 935 493 963 463 b 893 324 963 381 943 354 l 789 258 b 653 1 688 194 653 129 l 653 0 l 1099 0 l 1099 111 l 813 111 b 876 182 815 132 839 158 b 1072 325 953 231 1036 272 b 1103 424 1092 351 1103 383 b 892 600 1103 533 1025 600 z "},"¾":{"ha":1158,"x_min":0,"x_max":0,"o":"m 933 588 l 665 232 l 665 115 l 926 115 l 926 0 l 1060 0 l 1060 115 l 1139 115 l 1139 221 l 1060 221 l 1060 588 z m 926 435 l 926 221 l 769 221 z m 289 989 b 65 792 156 989 71 918 l 197 792 b 283 883 197 853 225 883 b 364 815 333 883 364 858 b 275 747 364 772 328 747 l 239 747 l 239 651 l 278 651 b 385 568 353 651 385 626 b 283 486 385 517 343 486 b 185 569 221 486 192 517 l 51 569 b 279 376 51 456 131 376 b 515 563 410 376 515 447 b 400 710 515 644 474 696 b 492 832 458 731 492 775 b 289 989 492 931 410 989 z m 882 1003 l 307 -31 l 428 -31 l 1000 1003 z "},"‰":{"ha":1593,"x_min":0,"x_max":0,"o":"m 783 1003 l 208 -31 l 329 -31 l 901 1003 z m 815 458 b 611 215 682 458 611 360 b 814 -19 611 72 689 -19 b 1017 215 944 -19 1017 68 b 815 458 1017 374 949 458 z m 736 225 b 817 368 736 290 736 368 b 892 215 889 368 892 294 b 814 71 892 140 888 71 b 736 225 751 71 736 139 z m 1296 458 b 1092 215 1161 458 1092 358 b 1294 -19 1092 72 1168 -19 b 1497 215 1426 -19 1497 68 b 1296 458 1497 374 1429 458 z m 1217 228 b 1297 368 1217 300 1221 368 b 1372 215 1372 368 1372 288 b 1294 71 1372 146 1371 71 b 1217 228 1235 71 1217 132 z m 300 992 b 96 749 157 992 96 881 b 299 514 96 607 172 514 b 501 749 444 514 501 619 b 300 992 501 906 435 992 z m 221 761 b 301 901 221 825 222 901 b 376 750 376 901 376 822 b 299 604 376 683 376 604 b 221 761 247 604 221 647 z "},"−":{"ha":833,"x_min":0,"x_max":0,"o":"m 67 425 l 67 276 l 768 276 l 768 425 z "},"±":{"ha":833,"x_min":0,"x_max":0,"o":"m 343 703 l 343 521 l 67 521 l 67 372 l 343 372 l 343 190 l 492 190 l 492 372 l 768 372 l 768 521 l 492 521 l 492 703 z m 67 149 l 67 0 l 768 0 l 768 149 z "},"×":{"ha":833,"x_min":0,"x_max":0,"o":"m 92 574 l 313 351 l 89 129 l 194 24 l 418 247 l 640 24 l 746 129 l 522 351 l 746 574 l 640 679 l 418 457 l 197 679 z "},"÷":{"ha":833,"x_min":0,"x_max":0,"o":"m 418 757 b 300 639 356 757 300 706 b 419 522 300 575 354 522 b 535 639 481 522 535 579 b 418 757 535 706 479 757 z m 67 425 l 67 276 l 768 276 l 768 425 z m 418 179 b 300 63 354 179 300 126 b 419 -56 300 0 354 -56 b 535 63 478 -56 535 1 b 418 179 535 126 482 179 z "},"≠":{"ha":833,"x_min":0,"x_max":0,"o":"m 563 760 l 463 572 l 67 572 l 67 428 l 382 428 l 307 274 l 67 274 l 67 129 l 221 129 l 153 3 l 274 -57 l 372 129 l 768 129 l 768 274 l 453 274 l 529 428 l 768 428 l 768 572 l 614 572 l 683 700 z "},"≈":{"ha":833,"x_min":0,"x_max":0,"o":"m 271 604 b 60 379 144 604 72 525 l 176 379 b 261 463 185 439 215 463 b 406 419 306 463 347 446 b 561 375 474 389 515 375 b 774 603 685 375 760 450 l 657 603 b 572 517 649 543 619 517 b 422 563 536 517 496 531 b 271 604 350 593 310 604 z m 271 307 b 60 82 144 307 72 228 l 176 82 b 261 165 185 142 215 165 b 406 122 296 165 333 156 b 561 78 482 88 522 78 b 774 306 688 78 760 156 l 657 306 b 572 219 649 246 618 219 b 432 261 538 219 496 233 b 271 307 367 289 318 307 z "},"≤":{"ha":833,"x_min":0,"x_max":0,"o":"m 768 714 l 67 517 l 67 367 l 768 169 l 768 326 l 274 442 l 768 557 z m 67 149 l 67 0 l 768 0 l 768 149 z "},"≥":{"ha":833,"x_min":0,"x_max":0,"o":"m 67 556 l 561 440 l 67 325 l 67 169 l 768 367 l 768 517 l 67 714 z m 67 149 l 67 0 l 768 0 l 768 149 z "},"¬":{"ha":833,"x_min":0,"x_max":0,"o":"m 56 564 l 56 415 l 607 415 l 607 138 l 756 138 l 756 564 z "},"∆":{"ha":946,"x_min":0,"x_max":0,"o":"m 364 992 l -10 0 l 956 0 l 588 992 z m 475 747 l 667 183 l 275 183 l 472 747 z "},"Δ":{"ha":946,"x_min":0,"x_max":0,"o":"m 364 992 l -10 0 l 956 0 l 588 992 z m 475 747 l 667 183 l 275 183 l 472 747 z "},"Ω":{"ha":1075,"x_min":0,"x_max":0,"o":"m 538 1015 b 53 546 261 1015 53 817 b 239 185 53 386 121 258 l 239 178 l 49 178 l 49 0 l 474 0 l 474 164 b 271 533 318 278 271 386 b 538 832 271 724 374 832 b 804 533 699 832 804 726 b 600 164 804 369 746 264 l 600 0 l 1024 0 l 1024 178 l 828 178 l 828 185 b 1022 546 954 268 1022 396 b 538 1015 1022 826 825 1015 z "},"Ω":{"ha":1075,"x_min":0,"x_max":0,"o":"m 538 1015 b 53 546 261 1015 53 817 b 239 185 53 386 121 258 l 239 178 l 49 178 l 49 0 l 474 0 l 474 164 b 271 533 318 278 271 386 b 538 832 271 724 374 832 b 804 533 699 832 804 726 b 600 164 804 369 746 264 l 600 0 l 1024 0 l 1024 178 l 828 178 l 828 185 b 1022 546 954 268 1022 396 b 538 1015 1022 826 825 1015 z "},"µ":{"ha":824,"x_min":0,"x_max":0,"o":"m 75 718 l 75 -253 l 272 -253 l 272 14 b 376 -19 303 -10 336 -19 b 557 100 443 -19 500 15 l 561 100 l 561 0 l 749 0 l 749 718 l 551 718 l 551 340 b 399 136 551 199 507 136 b 272 313 306 136 272 194 l 272 718 z "},"μ":{"ha":824,"x_min":0,"x_max":0,"o":"m 75 718 l 75 -253 l 272 -253 l 272 14 b 376 -19 303 -10 336 -19 b 557 100 443 -19 500 15 l 561 100 l 561 0 l 749 0 l 749 718 l 551 718 l 551 340 b 399 136 551 199 507 136 b 272 313 306 136 272 194 l 272 718 z "},"π":{"ha":961,"x_min":0,"x_max":0,"o":"m 21 718 l 21 569 l 165 569 l 165 0 l 363 0 l 363 569 l 583 569 l 583 139 b 754 -19 583 33 635 -19 b 883 8 806 -19 843 -11 l 883 136 b 838 131 871 133 854 131 b 781 193 794 131 781 150 l 781 569 l 933 569 l 933 718 z "},"°":{"ha":556,"x_min":0,"x_max":0,"o":"m 278 992 b 72 786 161 992 72 900 b 278 581 72 672 161 581 b 483 786 392 581 483 669 b 278 992 483 900 394 992 z m 163 786 b 278 908 163 854 219 908 b 393 786 339 908 393 851 b 278 664 393 721 339 664 b 163 786 218 664 163 719 z "},"ℓ":{"ha":694,"x_min":0,"x_max":0,"o":"m 415 1001 b 165 726 276 1001 165 892 l 165 399 l 19 279 l 88 175 l 90 175 l 167 242 l 167 185 b 394 -19 167 72 243 -19 b 633 74 478 -19 556 8 l 568 174 l 565 174 b 443 121 519 139 478 121 b 358 213 390 121 358 157 l 358 368 b 625 793 543 524 625 656 b 415 1001 625 919 540 1001 z m 358 768 b 414 874 358 824 381 874 b 468 782 446 874 468 833 b 358 531 468 693 432 610 z "},"℮":{"ha":1069,"x_min":0,"x_max":0,"o":"m 533 992 b 61 485 240 992 61 764 b 533 -19 61 201 247 -19 b 951 228 715 -19 833 44 l 888 267 b 533 46 799 118 692 46 b 268 154 429 46 342 82 l 268 485 l 1008 485 b 533 992 1008 772 824 992 z m 268 818 b 531 928 346 894 436 928 b 801 818 638 928 726 889 l 801 553 l 268 553 z "},"∞":{"ha":1178,"x_min":0,"x_max":0,"o":"m 317 643 b 63 372 160 643 63 529 b 322 99 63 211 165 99 b 589 257 411 99 483 132 b 860 96 686 139 769 96 b 1115 374 1015 96 1115 213 b 861 643 1115 528 1018 643 b 589 474 761 643 678 593 b 317 643 492 599 417 643 z m 682 367 b 856 485 754 453 807 485 b 964 369 919 485 964 439 b 860 256 964 303 922 256 b 682 367 799 256 743 294 z m 214 369 b 318 483 214 432 254 483 b 494 367 369 483 429 443 b 321 257 439 296 378 257 b 214 369 254 257 214 304 z "},"∂":{"ha":794,"x_min":0,"x_max":0,"o":"m 351 1001 b 94 899 272 1001 192 982 l 192 788 b 360 861 251 839 300 861 b 550 560 482 861 550 744 l 550 549 b 364 615 492 593 432 615 b 58 304 183 615 58 481 b 376 -18 58 117 186 -18 b 735 497 607 -18 735 156 b 351 1001 735 781 618 1001 z m 235 294 b 392 481 235 404 299 481 b 549 404 451 481 506 451 l 549 364 b 379 117 549 238 489 117 b 235 294 288 117 235 194 z "},"∫":{"ha":872,"x_min":0,"x_max":0,"o":"m 556 1089 b 383 1019 481 1089 421 1065 b 317 715 338 963 317 881 l 317 46 b 325 -172 317 15 325 -153 b 299 -214 325 -201 315 -214 b 271 -174 285 -214 278 -201 b 194 -93 257 -114 235 -93 b 107 -172 151 -93 107 -121 b 276 -296 107 -253 201 -296 b 508 51 436 -296 508 -186 l 508 715 b 500 957 508 765 500 933 b 526 1007 500 992 510 1007 b 557 963 539 1007 546 1000 b 636 886 571 918 588 886 b 721 975 686 886 721 924 b 556 1089 721 1051 625 1089 z "},"√":{"ha":792,"x_min":0,"x_max":0,"o":"m 613 1092 l 388 -12 l 225 342 l -12 233 l 56 88 l 129 124 l 333 -297 l 503 -297 l 806 1092 z "},"∑":{"ha":935,"x_min":0,"x_max":0,"o":"m 54 1092 l 54 939 l 447 406 l 38 -144 l 38 -297 l 897 -297 l 897 -122 l 275 -122 l 665 407 l 300 917 l 881 917 l 881 1092 z "},"∏":{"ha":1040,"x_min":0,"x_max":0,"o":"m 76 1092 l 76 -297 l 261 -297 l 261 917 l 779 917 l 779 -297 l 963 -297 l 963 1092 z "},"◊":{"ha":824,"x_min":0,"x_max":0,"o":"m 329 1038 l 72 494 l 328 -49 l 493 -49 l 751 494 l 493 1038 z m 411 857 l 567 494 l 411 131 l 256 494 z "},"₹":{"ha":772,"x_min":0,"x_max":0,"o":"m 60 871 l 228 871 b 411 763 322 871 392 844 l 60 763 l 60 661 l 414 661 b 208 532 400 553 317 532 l 60 532 l 60 404 l 379 0 l 633 0 l 300 393 l 318 393 b 613 661 496 393 601 488 l 769 661 l 769 763 l 610 763 b 553 871 603 806 583 844 l 769 871 l 769 972 l 60 972 z "},"₺":{"ha":772,"x_min":0,"x_max":0,"o":"m 554 511 b 315 164 551 310 515 181 l 315 493 l 560 611 l 560 722 l 315 604 l 315 699 l 560 817 l 560 928 l 315 810 l 315 972 l 128 972 l 128 721 l 18 668 l 18 557 l 128 610 l 128 515 l 18 463 l 18 351 l 128 404 l 128 0 l 278 0 b 749 511 638 0 749 192 z "},"ẞ":{"ha":1100,"x_min":0,"x_max":0,"o":"m 899 988 b 533 1015 818 1001 665 1015 b 96 686 267 1015 96 942 l 96 0 l 314 0 l 314 689 b 540 850 314 839 436 850 b 621 846 561 850 608 849 b 467 672 536 826 467 771 b 686 428 467 564 544 490 b 849 258 810 374 849 333 b 726 142 849 182 803 142 b 599 269 653 142 599 182 l 390 269 b 722 -24 393 56 561 -24 b 1060 272 913 -24 1060 71 b 829 578 1060 440 961 514 b 674 714 710 633 674 661 b 896 825 674 790 786 822 z "},"₼":{"ha":1090,"x_min":0,"x_max":0,"o":"m 639 642 b 860 57 825 588 860 243 l 860 0 l 1057 0 l 1057 89 b 639 807 1057 400 950 758 l 639 972 l 451 972 l 451 807 b 33 89 140 758 33 400 l 33 0 l 229 0 l 229 57 b 451 642 229 243 265 588 l 451 97 l 639 97 z "},"₽":{"ha":772,"x_min":0,"x_max":0,"o":"m 525 192 l 525 325 l 331 325 l 331 413 l 400 413 b 746 690 601 413 746 489 b 410 967 746 893 613 967 l 143 967 l 143 546 l 21 546 l 21 413 l 143 413 l 143 325 l 21 325 l 21 192 l 143 192 l 143 0 l 331 0 l 331 192 z m 331 546 l 331 814 l 385 814 b 547 685 485 814 547 788 b 390 546 547 582 492 546 z "},"":{"ha":711,"x_min":0,"x_max":0,"o":"m 0 997 l 0 0 l 711 0 l 711 997 z m 69 69 l 69 926 l 642 926 l 642 69 z m 360 846 b 172 656 251 846 185 781 l 242 644 b 356 776 253 733 294 776 b 461 658 411 776 461 722 b 397 549 461 611 428 576 b 332 471 369 522 347 497 b 310 351 318 444 310 406 l 313 325 l 376 325 b 386 432 376 381 379 415 b 443 496 393 447 413 468 b 532 664 503 550 532 589 b 360 846 532 772 458 846 z m 308 163 l 386 163 l 386 256 l 308 256 z "}}}
